<svg id="Layer_2" data-name="Layer 2" xmlns="http://www.w3.org/2000/svg" viewBox="0 0 505.89 388.35"><defs><style>.cls-1{fill:#e2cfde;}.cls-2{font-size:51.44px;}.cls-2,.cls-6{fill:#918b90;font-family:KingsCaslon-BoldItalic, Kings Caslon;font-weight:700;font-style:italic;}.cls-3{letter-spacing:-0.04em;}.cls-4{letter-spacing:-0.02em;}.cls-5{letter-spacing:-0.01em;}.cls-6{font-size:47.29px;}.cls-7{letter-spacing:-0.1em;}.cls-8{letter-spacing:-0.01em;}</style></defs><path class="cls-1" d="M354.85,267.17q-1.47,9.84-2.14,19.77c-.13,1.92,2.87,1.91,3,0q.63-9.53,2-19a1.56,1.56,0,0,0-1.05-1.85,1.51,1.51,0,0,0-1.84,1.05Z" transform="translate(-48.11 -60.83)"/><path class="cls-1" d="M352.23,290.91a9.14,9.14,0,0,1-.82,4.93c-.75,1.76-1.76,3.4-2.63,5.09a1.5,1.5,0,0,0,2.59,1.52c1-1.93,2.1-3.79,2.92-5.8a11.81,11.81,0,0,0,.84-6.53,1.52,1.52,0,0,0-1.85-1.05,1.53,1.53,0,0,0-1,1.84Z" transform="translate(-48.11 -60.83)"/><path class="cls-1" d="M377.13,248.08a1.5,1.5,0,0,0,0-3,1.5,1.5,0,0,0,0,3Z" transform="translate(-48.11 -60.83)"/><path class="cls-1" d="M383.52,247.77l-.42,3.16a1.52,1.52,0,0,0,.44,1.06,1.56,1.56,0,0,0,1.06.44,1.54,1.54,0,0,0,1.06-.44l.24-.31a1.5,1.5,0,0,0,.2-.75l.42-3.16a1.57,1.57,0,0,0-.44-1.07,1.53,1.53,0,0,0-2.13,0l-.23.31a1.42,1.42,0,0,0-.2.76Z" transform="translate(-48.11 -60.83)"/><path class="cls-1" d="M400.48,254.72a104.89,104.89,0,0,0,12.66.29,1.54,1.54,0,0,0,1.5-1.5,1.51,1.51,0,0,0-1.5-1.5,104.89,104.89,0,0,1-12.66-.29,1.51,1.51,0,0,0-1.5,1.5,1.53,1.53,0,0,0,1.5,1.5Z" transform="translate(-48.11 -60.83)"/><path class="cls-1" d="M383.86,200.21a1.5,1.5,0,0,0,0-3,1.5,1.5,0,0,0,0,3Z" transform="translate(-48.11 -60.83)"/><path class="cls-1" d="M302.76,60.83a59.1,59.1,0,0,0-13.18,1.87c-3.88,1.17-8.16,3.25-10.32,6.85s-1.3,8,1.1,11.17c2.63,3.46,6.85,5.16,11,6l-1-1.84c.07-.21-.06,0-.34,0s-.43,0-.65,0c-.77,0-1.56-.13-2.33-.18q-2.62-.16-5.25-.09a54.83,54.83,0,0,0-10.06,1.1c-2.39.5-4.93,1.44-6.5,3.4a6.66,6.66,0,0,0-1.36,3.3c-.16,1.13,0,2.69-.88,3.55-1.39,1.35.74,3.47,2.12,2.12a5.6,5.6,0,0,0,1.53-3.55c.15-1.22.11-2.53.91-3.54,1.66-2.1,5.07-2.47,7.52-2.83a57.93,57.93,0,0,1,11-.51c2.46.12,6.11,1,7.17-2a1.51,1.51,0,0,0-1-1.85c-3.36-.71-6.93-1.92-9.19-4.67-2.14-2.6-2.73-6.4-.41-9.08s5.91-4.07,9.23-4.89a61.54,61.54,0,0,1,11-1.39c1.92-.12,1.93-3.12,0-3Z" transform="translate(-48.11 -60.83)"/><path class="cls-1" d="M246.22,95.74a28.27,28.27,0,0,0-9,6.2,1.51,1.51,0,0,0,0,2.12,1.53,1.53,0,0,0,2.12,0c.6-.61,1.22-1.2,1.88-1.76l.51-.42.23-.18.1-.08q.54-.41,1.08-.78a27.42,27.42,0,0,1,4.57-2.51,1.51,1.51,0,0,0,.54-2,1.54,1.54,0,0,0-2.05-.54Z" transform="translate(-48.11 -60.83)"/><path class="cls-1" d="M323.23,133.34a6.15,6.15,0,0,1,.64-.61s.22-.17.05,0,0,0,.06,0l.38-.26a8.46,8.46,0,0,1,.77-.44l.19-.09s.26-.11.06,0,0,0,.06,0l.24-.09c.27-.09.53-.17.8-.24l.46-.09.2,0c.21,0-.29,0-.09,0a9.22,9.22,0,0,1,1.82,0,1.51,1.51,0,0,0,1.5-1.5,1.54,1.54,0,0,0-1.5-1.5,9.46,9.46,0,0,0-7.76,2.85,1.5,1.5,0,0,0,2.12,2.13Z" transform="translate(-48.11 -60.83)"/><path class="cls-1" d="M436.09,125c6.78-2.23,13.85,1.54,20.77.5,6.66-1,11.89-5.6,18-8,1.77-.7,1-3.61-.8-2.89-6,2.4-11.41,7.21-18,8-7,.88-13.85-2.78-20.77-.51-1.83.6-1,3.5.8,2.9Z" transform="translate(-48.11 -60.83)"/><path class="cls-1" d="M426.05,180.14a9,9,0,0,1,1.77-2.37,1.91,1.91,0,0,1,2.57-.16,8.48,8.48,0,0,0,6.81,1.11c4.78-1.21,9.44-4.05,13.33-7,1.52-1.15,0-3.76-1.52-2.59a45.07,45.07,0,0,1-6.78,4.29c-2.21,1.14-5,2.67-7.52,2.64-1.32,0-2.19-.77-3.31-1.33a4.87,4.87,0,0,0-3.22-.48c-2.2.48-3.66,2.55-4.72,4.37a1.5,1.5,0,0,0,2.59,1.52Z" transform="translate(-48.11 -60.83)"/><path class="cls-1" d="M359.85,333.56c.21-1,.4-2.05.57-3.08a1.22,1.22,0,0,0,0-.6,1.16,1.16,0,0,0-.18-.56,1.56,1.56,0,0,0-.9-.69,1.59,1.59,0,0,0-1.15.15,1.45,1.45,0,0,0-.69.9c-.17,1-.36,2.06-.58,3.08a1.59,1.59,0,0,0,.16,1.15,1.5,1.5,0,0,0,2.05.54,1.47,1.47,0,0,0,.69-.89Z" transform="translate(-48.11 -60.83)"/><path class="cls-1" d="M343.34,335a5.86,5.86,0,0,0,.06,2.73,5.31,5.31,0,0,0,1.36,2.32,1.51,1.51,0,0,0,2.12,0,1.53,1.53,0,0,0,0-2.12,4.32,4.32,0,0,1-.34-.39l.23.31a4.59,4.59,0,0,1-.48-.83l.16.36a4,4,0,0,1-.27-1l.06.4a4.28,4.28,0,0,1,0-1.13l-.06.4c0-.1,0-.19.05-.29a1.59,1.59,0,0,0-.15-1.15,1.52,1.52,0,0,0-.9-.69,1.49,1.49,0,0,0-1.15.15,1.42,1.42,0,0,0-.69.9Z" transform="translate(-48.11 -60.83)"/><path class="cls-1" d="M344.77,327.27l-1.2,6.42a1.5,1.5,0,0,0,2.9.8l1.19-6.42a1.54,1.54,0,0,0-1.05-1.85,1.51,1.51,0,0,0-1.84,1Z" transform="translate(-48.11 -60.83)"/><path class="cls-1" d="M370.21,269.47a16.72,16.72,0,0,1,10.86-10.87,58.12,58.12,0,0,1,9.5-2q6.31-1,12.63-2c4.78-.74,9.56-1.47,14.33-2.22,1.9-.3,1.1-3.19-.8-2.89-8.9,1.39-17.81,2.74-26.71,4.16-6.21,1-12.64,2-17.44,6.41a20.23,20.23,0,0,0-5.26,8.59c-.62,1.83,2.27,2.62,2.89.79Z" transform="translate(-48.11 -60.83)"/><path class="cls-1" d="M386.9,250.82c-1.3.39-.7-2.18-.54-2.72a21.65,21.65,0,0,1,1.81-4.16,62.37,62.37,0,0,1,5-7.29c1.89-2.49,3.76-5,5.69-7.46a15.41,15.41,0,0,1,6.41-5.17,30,30,0,0,1,9.29-2.12c1.87-.13,5.64-.61,7.05,1.11.76.92.11,2.05-.49,2.86a42.66,42.66,0,0,1-3.24,3.63l-3.32,3.62c-.89,1-2.1,2-2.54,3.27-1,3.05,2.65,5.15,5.14,5.51,3.33.49,6.38-1,9.25-2.52,1.71-.91.19-3.5-1.52-2.59-2.58,1.37-6.14,3.32-9,1.57-.39-.24-1-.65-.94-1.12s1.21-1.4,1.59-1.81l3.83-4.18c1.94-2.12,5-4.64,4.58-7.85-.33-2.64-2.79-4-5.19-4.37a27.71,27.71,0,0,0-9.52.43A24.69,24.69,0,0,0,400.8,223c-2.55,1.79-4.33,4.39-6.19,6.84-2,2.68-4.12,5.33-6.09,8a31.83,31.83,0,0,0-5,9.39,5.8,5.8,0,0,0,.29,4.92,3.54,3.54,0,0,0,3.94,1.49c1.84-.54,1.06-3.44-.8-2.89Z" transform="translate(-48.11 -60.83)"/><path class="cls-1" d="M533.94,201.8c-5.8-.87-11.26,1.48-16.64,3.29-6.13,2-12.61,3.7-19.11,3.45l1.45,1.9c1.12-4.28,4.56-6.9,8.19-9.08s7.74-4.11,10.82-7.22a1.52,1.52,0,0,0-.66-2.51,13.07,13.07,0,0,0-9.36.65c-1.49.61-2.91,1.33-4.35,2a22,22,0,0,1-2.14,1,9.7,9.7,0,0,1-3.14.17l1.06.44a16.53,16.53,0,0,0-16.95-2.49c-3,1.24-5.22,3.64-8.31,4.6-3.29,1-6.71.62-10-.18-1.48-.35-2.94-.78-4.4-1.21L458,196c-.86-.24-1.9-.72-2.76-.28-2,1-3.39,3.55-4.69,5.26s-2.9,3.77-5.15,4.37a22.72,22.72,0,0,1-4,.26,26.85,26.85,0,0,0-5.28.89,15.4,15.4,0,0,0-4.81,2.27c-1.39,1-2.11,2.43-3.38,3.56a32,32,0,0,0-4.52,4.34,19.5,19.5,0,0,0-2.64,4.9c-.71,1.79,2.19,2.57,2.89.79a15.37,15.37,0,0,1,3.71-5.62c1.52-1.44,3.26-2.57,4.49-4.3,2.3-3.21,7.4-3.8,11-3.9a11.36,11.36,0,0,0,4.95-1,11.6,11.6,0,0,0,3.36-2.72c2-2.21,3.44-4.94,5.82-6.79l-1.46.39c4.26,1.08,8.41,2.63,12.8,3.1A17.73,17.73,0,0,0,481.18,198a14.25,14.25,0,0,1,10.42-2.73,13.35,13.35,0,0,1,5.52,2.2,8.34,8.34,0,0,0,1.3.93,4,4,0,0,0,1.58.13c.66,0,1.35.06,2,0a5.79,5.79,0,0,0,1.65-.58c4.28-1.89,8.68-5.08,13.54-3.4l-.66-2.5c-6.3,6.35-17.24,7.88-19.79,17.62a1.52,1.52,0,0,0,1.45,1.9c6.39.24,12.72-1.3,18.78-3.2,5.12-1.6,10.65-4.48,16.17-3.64,1.89.28,2.7-2.61.8-2.9Z" transform="translate(-48.11 -60.83)"/><path class="cls-1" d="M430.81,244.35a2.55,2.55,0,0,0,2.06,3.07c1.73.33,2.84-.76,4.13-1.77,2.54-2,4.85-4.24,7.5-6.07a15.48,15.48,0,0,1,9-3.08q6.7,0,13.38-.73c8.69-.88,17.3-2.43,25.87-4.15,4.42-.89,8.82-1.83,13.24-2.73q3.21-.67,6.43-1.3l3.35-.65a5.9,5.9,0,0,1,2.88-.18c4.38,1.2,9,1.05,13.5.87,2-.07,4.34.21,6.27-.34s3.67-2.06,5.59-2.89c1.76-.76.24-3.34-1.52-2.59-1.58.68-2.93,1.87-4.53,2.48a7.1,7.1,0,0,1-2.39.23c-.92,0-1.85,0-2.77.09-3.87.15-7.84.38-11.66-.35-.86-.17-1.67-.43-2.52-.64a7.77,7.77,0,0,0-3.16.33q-3.12.59-6.22,1.22c-4.12.83-8.23,1.69-12.34,2.54-8.23,1.71-16.48,3.37-24.82,4.45-4.1.54-8.21.94-12.34,1.16-3.62.19-7.49-.24-11,.8a25.73,25.73,0,0,0-8.7,5.13c-1.36,1.12-2.69,2.29-4.06,3.41-.61.51-1.23,1-1.88,1.46-.18.13-.37.29-.56.4.39-.23,0,.16,0,0s-.56.81.09.21c.17-.16.08.59.21-.35a1.51,1.51,0,0,0-1.5-1.5,1.53,1.53,0,0,0-1.5,1.5Z" transform="translate(-48.11 -60.83)"/><path class="cls-1" d="M457.92,172.47c3.54-2.63,8.62-2.73,11.17-6.74,2-3.15.39-8.34-3.81-8.32a1.52,1.52,0,0,0-1.45,1.9c1.42,4.67,6.57,5.92,10.89,5.13a58.43,58.43,0,0,0,7.92-2.45l8.23-2.78c4.12-1.39,8.45-2.66,11.91-5.4,2.94-2.33,5.24-6.3,3.82-10.1a4.94,4.94,0,0,0-5.4-3.26c-3.19.3-6.38.92-9.55,1.39-1.67.25-1.27,3,.4,2.95,8-.37,11.42-8.28,13.35-14.9.51-1.77,1.1-3.7.51-5.53a6,6,0,0,0-2.77-3.27,17.21,17.21,0,0,0-4.61-1.62l-6.45-1.61-6.44-1.61a13.35,13.35,0,0,0-5.95-.45c-3.16.66-5.15,3.36-7.42,5.4-2.83,2.56-6.33,2.5-9.88,1.77-4.05-.84-8-1.93-12.12-2.28a45,45,0,0,0-12.32.52,15.35,15.35,0,0,0-9.37,5.17c-2.3,2.92-2.52,6.14-1.81,9.67.34,1.73.94,3.66.38,5.4a5.15,5.15,0,0,1-3.07,3c-2.36,1-5.67,1.86-8.24,1.2-.95-.24-2-.86-1.58-2,.6-1.56,2.81-1.85,4.22-1.9,3.4-.12,7.31-.1,8.93-3.74a4.05,4.05,0,0,0-.47-4.27c-1.08-1.31-2.75-1.71-4.34-2.07l-12.85-2.85c-3.06-.68-6.74-2-9.86-.93a4.47,4.47,0,0,0-2.67,6.14c.92,2.06,2.83,3.39,4.16,5.15a2.91,2.91,0,0,1,.82,2.27l1.05-1a91.66,91.66,0,0,0-31.31,12.42c-1.62,1-.12,3.62,1.52,2.59A89.45,89.45,0,0,1,404,143.23a1.45,1.45,0,0,0,1-1c.49-2.29-.64-4.15-2.12-5.81-1-1.1-3.25-2.73-3.21-4.37.07-2.52,4.69-1.35,6-1.05l12.37,2.75a41.11,41.11,0,0,1,5.48,1.28c1.4.52,1.43,1.62.4,2.61-1.27,1.23-3.24,1.06-4.88,1.09a10.92,10.92,0,0,0-4.89.94c-2.51,1.26-4.12,4.32-2.38,6.87,1.47,2.16,4.53,2.49,6.91,2.27a18,18,0,0,0,8.12-2.48c2.76-1.84,3.73-4.75,3.3-8-.46-3.4-1.76-6.56.38-9.67,2-2.88,5.47-4.1,8.79-4.65a44.21,44.21,0,0,1,11.83-.21c3.82.4,7.44,1.56,11.21,2.24,3.33.61,6.9.72,9.89-1.11,2.45-1.5,4-4.08,6.46-5.54a6.73,6.73,0,0,1,5.12-.45c2,.44,4,1,5.94,1.47l6.21,1.55a29.89,29.89,0,0,1,4.83,1.37c1.35.59,2.37,1.48,2.26,3.07a22.93,22.93,0,0,1-1.42,5.25c-1.05,3.24-2.55,6.59-5.43,8.62a8,8,0,0,1-4.25,1.54l.4,3,6.87-1c1.55-.23,3.69-.92,4.45.93,1.16,2.84-1.33,5.8-3.49,7.3-2.87,2-6.23,3-9.5,4.13-4.37,1.47-8.73,3-13.11,4.43-3.27,1.09-9.53,2.65-10.94-2l-1.45,1.9c1,0,1.62,1,1.73,2,.16,1.38-.94,2.57-2,3.31-2.64,1.86-6,2.25-8.61,4.19-1.54,1.14,0,3.74,1.51,2.59Z" transform="translate(-48.11 -60.83)"/><path class="cls-1" d="M378.43,244A182.81,182.81,0,0,1,390,229a91.46,91.46,0,0,0,6.08-7.42c1.77-2.59,3.61-5.12,5.46-7.66s3.7-5.1,5.45-7.72a14.68,14.68,0,0,0,2.42-5.21,6.26,6.26,0,0,0-1.1-5.41c-1.76-2.13-4.31-2.27-6.89-2.19-6.61.18-13.3,2.65-19.8.44-1.83-.62-2.61,2.28-.79,2.9,5.38,1.83,10.9.7,16.37,0,1.33-.16,2.66-.3,4-.35a9.25,9.25,0,0,1,3.68.24,3.08,3.08,0,0,1,1.59,3.82,15.55,15.55,0,0,1-2.6,5.05c-1.59,2.33-3.25,4.62-4.91,6.91s-3.5,4.81-5.18,7.26-3.89,4.84-5.89,7.21a189.2,189.2,0,0,0-12.07,15.6c-1.09,1.61,1.51,3.11,2.59,1.52Z" transform="translate(-48.11 -60.83)"/><path class="cls-1" d="M417.35,186.5l-13.64,33.15c-.73,1.79,2.17,2.56,2.9.8l13.63-33.15c.73-1.79-2.17-2.57-2.89-.8Z" transform="translate(-48.11 -60.83)"/><path class="cls-1" d="M420.11,178.54a69.44,69.44,0,0,0,2.08-11.07,1.5,1.5,0,0,0-1.5-1.5,1.54,1.54,0,0,0-1.5,1.5,64.21,64.21,0,0,1-2,10.27,1.51,1.51,0,0,0,2.9.8Z" transform="translate(-48.11 -60.83)"/><path class="cls-1" d="M427.33,163.45a27.5,27.5,0,0,1,5.65-4.56c2.41-1.34,4.59-1.29,7.21-.68a20.09,20.09,0,0,0,8.35-.05c2.06-.37,4.4-1,5-3.31.24-1-.73-2.3-1.85-1.84-5.37,2.21-10.5-1.59-15.25-3.66a10.71,10.71,0,0,0-3.5-1,12.58,12.58,0,0,0-3.75.52,19.31,19.31,0,0,1-8.49,0c-1.88-.42-2.68,2.47-.79,2.9a23,23,0,0,0,8.52.33c1.41-.22,2.87-.82,4.31-.73a10.56,10.56,0,0,1,3.81,1.36c4.9,2.38,10.4,5.48,15.94,3.2l-1.85-1.85c-.19.77-1.33.92-2,1.06a25.77,25.77,0,0,1-4.1.57c-2.65.12-5.09-1.08-7.73-1-4.68.19-8.4,3.53-11.58,6.63-1.38,1.35.74,3.47,2.12,2.12Z" transform="translate(-48.11 -60.83)"/><path class="cls-1" d="M410,148.7a17.14,17.14,0,0,1-13.5.83,1.5,1.5,0,0,0-.8,2.89,20.11,20.11,0,0,0,15.81-1.13c1.72-.88.21-3.47-1.51-2.59Z" transform="translate(-48.11 -60.83)"/><path class="cls-1" d="M410.23,157.15a23,23,0,0,1,2.12,5.16c.38,1.54-2.52,2.54-3.68,2.83a14.47,14.47,0,0,1-5.37.16c-1.74-.21-3.56-.84-5.31-.78a3.39,3.39,0,0,0-3.21,2.46,5.54,5.54,0,0,1-2.91,3c-3.31,1.54-7.09.27-10.3-.92a9,9,0,0,1-2.67-1.24,4.52,4.52,0,0,1-1.18-2.6,56,56,0,0,1-1.21-6.8c-.22-1.89-3.22-1.91-3,0a63.72,63.72,0,0,0,1.21,7.14c.48,2.1,1.16,4,3.11,5.15a25.43,25.43,0,0,0,6.09,2.29,15.3,15.3,0,0,0,6.62.49,10,10,0,0,0,4.87-2.27,7.72,7.72,0,0,0,1.63-2c.2-.37.36-.75.52-1.13s.18-.58.76-.56c2.28.09,4.53.85,6.83.94a14,14,0,0,0,6-1c1.84-.78,4.27-2.34,4.33-4.58a10,10,0,0,0-1-3.66,36.13,36.13,0,0,0-1.64-3.58c-.9-1.71-3.49-.2-2.59,1.51Z" transform="translate(-48.11 -60.83)"/><path class="cls-1" d="M315,129.48c8.79-1.44,18-2.65,26.77-.2,7.23,2,14,6.66,16.69,13.95a20.91,20.91,0,0,1,.45,13.15,1.5,1.5,0,0,0,2.89.8,23.75,23.75,0,0,0-6.34-23.75c-6.36-6-15.25-8.39-23.83-8.53a98.12,98.12,0,0,0-17.43,1.69c-1.9.31-1.09,3.2.8,2.89Z" transform="translate(-48.11 -60.83)"/><path class="cls-1" d="M340.08,121c5.3-4.1,10.5-8.42,16-12.32.75-.54,2.22-1.65,3.17-.92s1.05,2.24,1.45,3.18a10.28,10.28,0,0,0,5,5.18,10.49,10.49,0,0,0,1.72.65c.36.1,1.29.06,1.53.29l.16,0c-.23-.14-.36,0-.4.27a5.77,5.77,0,0,0-.49.84l-1.49,2.52c-.81,1.37-1.77,2.72-2.45,4.16a2.76,2.76,0,0,0,.59,3.42c1.56,1.43,3.83,1.39,5.67,2.2,2.52,1.11.36,4.24-.54,5.85-2.93,5.19-6.79,9.93-7.37,16.08-.18,1.92,2.82,1.91,3,0,.54-5.75,4.7-10.36,7.34-15.25,1.25-2.33,2.75-5.35.93-7.79-1.42-1.91-3.88-2-6-2.78a2.73,2.73,0,0,1-.61-.26l-.13-.07c-.29-.06-.33-.15-.11-.27,0-.49,1-1.64,1.24-2.1,1-1.67,2.05-3.32,3-5,.6-1.1,1.06-2.44.28-3.58s-2.41-1.1-3.71-1.53c-2.74-.9-4-3-5-5.56s-3-4.36-5.84-3.43a15.4,15.4,0,0,0-4.45,2.82l-4.73,3.66L338,118.88a1.5,1.5,0,0,0,0,2.12,1.53,1.53,0,0,0,2.12,0Z" transform="translate(-48.11 -60.83)"/><path class="cls-1" d="M337.56,120.94c-3.75-.79-8.05-.25-11.56-2s-5.11-6.13-4.38-9.81c.4-2,2-3.45,2.36-5.48a7.61,7.61,0,0,0-1.15-5.61,16.36,16.36,0,0,0-4.42-3.86c-1.45-1-3.15-2.35-3.2-4.28s-3-1.94-3,0c.08,3.44,2.75,5.52,5.34,7.32,1.33.93,2.77,1.95,3.32,3.54.59,1.74,0,3.17-.9,4.65-3.53,5.85-.58,14.23,5.74,16.66,3.52,1.34,7.42,1,11.06,1.73,1.88.4,2.69-2.49.79-2.9Z" transform="translate(-48.11 -60.83)"/><path class="cls-1" d="M327.74,106.9a3.72,3.72,0,0,0,4.12-.34,6.14,6.14,0,0,0,2.26-4.18c.29-1.65.5-3.18,1.81-4.36a5,5,0,0,1,4-1.3c1,.15,2.33-.65,1.85-1.84l-2.15-5.28L338.54,87a6.16,6.16,0,0,1-.75-2.55c.15-1.4,2.56-1,3.51-1l6.2,0c3.22,0,6.84-.06,9.27-2.49,2.14-2.14,2.71-5.6.48-7.89s-5.55-2.24-8.48-1.87c-1.64.21-3.42.55-5,0a3.94,3.94,0,0,1-1.61-1,3.5,3.5,0,0,1-.65-2.17c-.41-2.76-3.26-3.89-5.79-3.49a10.26,10.26,0,0,0-3.95,1.86,8.32,8.32,0,0,1-5.1,1.84,23,23,0,0,1-5.84-1.39,52.33,52.33,0,0,0-6.42-1.59,53.09,53.09,0,0,0-13.14-.74c-1.92.13-1.93,3.13,0,3a50.1,50.1,0,0,1,11.41.47c3.67.59,7.09,1.86,10.68,2.74a13.35,13.35,0,0,0,5,.41,10.87,10.87,0,0,0,4.55-1.92,8.24,8.24,0,0,1,3.47-1.76,2.93,2.93,0,0,1,1.52.21c.71.37.61.89.69,1.62.32,2.75,2.74,4.56,5.34,5,3.25.59,6.81-1.24,9.94,0s1.72,4.45-.75,5.46a12.68,12.68,0,0,1-4.74.63c-2,0-4.06,0-6.08,0-3,0-7.48-.09-7.51,4,0,1.79.92,3.49,1.58,5.11l2.5,6.16,1.85-1.85A8.19,8.19,0,0,0,332.87,97a9.18,9.18,0,0,0-1.57,4.2c-.13.71-.65,3.91-2.05,3.14-1.69-.93-3.21,1.66-1.51,2.59Z" transform="translate(-48.11 -60.83)"/><path class="cls-1" d="M248.58,108.47,269.82,105c1.66-.26,3.31-.58,5-.8,1.06-.14,2.53-.36,3.44.35S279.4,107,280,108a8.42,8.42,0,0,0,2.67,2.61,9.22,9.22,0,0,0,6.64,1.21c2.82-.57,4.38-2.77,6.52-4.44,5-3.91,11.17.91,14.72,4.48,4.61,4.65,9.84,10.14,17.05,8.8,1.9-.34,1.09-3.24-.8-2.89-6.26,1.16-10.95-4.94-14.88-8.77s-9.58-7.52-15.26-5.46c-2.68,1-4.09,3.34-6.45,4.75a5.88,5.88,0,0,1-6.29-.44c-2.12-1.51-2.06-4.45-4.29-5.85s-5.43-.64-8-.23l-23.93,3.86c-1.9.3-1.09,3.19.8,2.89Z" transform="translate(-48.11 -60.83)"/><path class="cls-1" d="M316.5,116a13.22,13.22,0,0,0-9.44-1.11,12.78,12.78,0,0,0-4.41,2.16c-1.33,1-2.59,2.23-4.21,2.73a7.79,7.79,0,0,1-7.94-2.37c-2-2.17-3.24-4.91-6-6.29-1.72-.87-3.24,1.72-1.51,2.59,2.65,1.34,3.8,4.33,5.86,6.33a10.85,10.85,0,0,0,8.24,3,9.78,9.78,0,0,0,4.17-1.29c1.56-.91,2.82-2.26,4.42-3.14a10,10,0,0,1,9.29,0c1.71.9,3.23-1.69,1.51-2.59Z" transform="translate(-48.11 -60.83)"/><path class="cls-1" d="M265.55,111.76l-12,4.14a8.8,8.8,0,0,0-3,1.36c-.84.71-.72.62-.3,1.39a13.91,13.91,0,0,0,.75,1.23,16.19,16.19,0,0,0,11.44,6.91c3.49.4,6.94-.52,10.42-.55a9.23,9.23,0,0,1,4.92,1.11c1.53.91,2.66,2.37,4,3.48a25.12,25.12,0,0,0,9.51,4.27c4,1.07,8.08,2.06,12.11,3.09,3.28.84,6.74,2.13,10.16,2.12,3.11,0,6.18-1.62,6.22-5.1,0-2-.81-4.11-1.37-6-.67-2.27-1.4-4.53-2.17-6.77l-1.45,1.9a31,31,0,0,1,11.88,1.8c4,1.44,7.26,4,10.84,6.18,3.36,2.07,7.34,3.11,10.48,5.53a19.15,19.15,0,0,1,5.69,7.91,60.76,60.76,0,0,1,3.12,11.31c.38,1.89,3.27,1.09,2.89-.79-1.41-6.93-3.15-14.58-8.5-19.62-3.11-2.93-7.13-4.13-10.81-6.14-3.86-2.11-7.2-4.93-11.3-6.64a33.45,33.45,0,0,0-14.29-2.54,1.51,1.51,0,0,0-1.44,1.9c.66,1.94,1.3,3.89,1.89,5.86s1.48,4,1.53,5.92c.09,3-4,2.39-5.93,2-4.14-.92-8.25-2.09-12.37-3.14-3.77-1-7.77-1.69-11.35-3.27a15.68,15.68,0,0,1-4.48-3,16.34,16.34,0,0,0-4.26-3.28c-3.33-1.53-7-1-10.48-.65s-6.61.41-9.67-1.22a13.49,13.49,0,0,1-3.79-3,12.63,12.63,0,0,1-1.27-1.71,8,8,0,0,0-1.3-2.17c-1.39-1.15-3.23.18-3.26,1.79,0,2,2.13,2.52,3.73,2.1,2.33-.62,4.62-1.6,6.9-2.39l7-2.44c1.81-.63,1-3.53-.8-2.89Z" transform="translate(-48.11 -60.83)"/><path class="cls-1" d="M359.31,162a15.45,15.45,0,0,1-8.86-1.29,1.53,1.53,0,0,0-2.26,1.3c-.69,6.14-8.49,7.47-13.42,8.09-1.29.16-2.27,2.08-.76,2.8a72.2,72.2,0,0,0,17.67,6c2.78.51,5.62.57,7.8,2.62s2,4.84,2,7.73c-.15,14.47-1.35,28.91-2.43,43.33-.6,8.06-1.16,16.12-1.47,24.19-.08,1.93,2.92,1.93,3,0,.59-15,2-29.93,3-44.9.47-7.45.83-14.91.92-22.37,0-3,.23-6-1.57-8.57a11,11,0,0,0-6.51-4.33c-1.84-.38-3.73-.53-5.57-.92s-3.45-.8-5.14-1.32a75.35,75.35,0,0,1-10.16-4l-.76,2.8c6.87-.86,15.5-2.91,16.42-11.09l-2.26,1.3a19.3,19.3,0,0,0,11.18,1.59c1.9-.29,1.1-3.18-.8-2.9Z" transform="translate(-48.11 -60.83)"/><path class="cls-1" d="M371.11,158.37l-.39,12.14,2.94-.4-5.77-20.71-2.5,1.46a24.16,24.16,0,0,1,5.9,14.79h3a30.35,30.35,0,0,0-5.75-16.45c-1-1.31-3.22-.59-2.74,1.15l4.82,17.85c.43,1.59,3.1,1.33,2.95-.39a54.28,54.28,0,0,0-4-16.51,1.5,1.5,0,0,0-2.89.79c4.13,22.64,4.91,45.66,4.86,68.62,0,6.57-.12,13.14-.5,19.7-.11,1.93,2.89,1.93,3,0,.67-11.55.62-23.18.41-34.75s-.8-23.3-2.06-34.89q-1.07-9.78-2.82-19.47l-2.89.79a52.09,52.09,0,0,1,3.93,15.72l2.95-.4-4.83-17.86L366,150.71a27.65,27.65,0,0,1,5.34,14.94c.09,1.92,3.08,1.94,3,0a27.49,27.49,0,0,0-6.78-16.92c-1-1.15-2.89.08-2.51,1.46l5.77,20.72a1.51,1.51,0,0,0,3-.4l.39-12.14c.07-1.93-2.93-1.93-3,0Z" transform="translate(-48.11 -60.83)"/><path class="cls-1" d="M350.54,318.29a48.9,48.9,0,0,0,.1-7.16l-2.94.39c.07.36.13.73.19,1.09,0-.15,0-.13,0,0l0,.27.06.62c0,.76.06,1.51,0,2.27a1.5,1.5,0,0,0,3,0,21.42,21.42,0,0,0-.43-5,1.5,1.5,0,0,0-2.95.4,48.9,48.9,0,0,1-.1,7.16,1.51,1.51,0,0,0,1.5,1.5,1.54,1.54,0,0,0,1.5-1.5Z" transform="translate(-48.11 -60.83)"/><path class="cls-1" d="M346.1,313.72A40.76,40.76,0,0,1,344.84,329c-.58,1.85,2.32,2.64,2.89.8a43.14,43.14,0,0,0,1.37-16.11,1.54,1.54,0,0,0-1.5-1.5,1.5,1.5,0,0,0-1.5,1.5Z" transform="translate(-48.11 -60.83)"/><path class="cls-1" d="M348.89,325.48a105.89,105.89,0,0,0,.68-15c-.05-1.93-3.05-1.94-3,0a105.89,105.89,0,0,1-.68,15,1.5,1.5,0,0,0,1.5,1.5,1.54,1.54,0,0,0,1.5-1.5Z" transform="translate(-48.11 -60.83)"/><path class="cls-1" d="M351.34,292.9a133.08,133.08,0,0,0-3,21.39c-.15,1.93,2.85,1.92,3,0a127.63,127.63,0,0,1,2.92-20.59c.46-1.87-2.43-2.67-2.89-.8Z" transform="translate(-48.11 -60.83)"/><path class="cls-1" d="M417.17,254l12.58-6.28,6.19-3.08,3.09-1.54a7.86,7.86,0,0,1,3-1.11l-1.3-2.26c-2.27,3.86-7.23,5.29-11.2,6.69a129,129,0,0,1-15.2,4.31,1.5,1.5,0,0,0-1.05,1.84c1,2.46,3.43,1.54,5.35.81l8.13-3.09L443,244.14c1.79-.67,1-3.58-.8-2.89l-13.7,5.21L421.76,249l-3.25,1.24-1.86.71c-.24.1-.48.18-.73.26s-.31.23.23.59l-1,1.84a128,128,0,0,0,16.53-4.79c4.38-1.6,9.17-3.36,11.66-7.59A1.5,1.5,0,0,0,442,239c-2.2.13-4.11,1.33-6,2.29l-6.85,3.41-13.47,6.72c-1.72.86-.21,3.45,1.52,2.59Z" transform="translate(-48.11 -60.83)"/><path class="cls-1" d="M411.32,167.06c.73,6.33,1.38,12.69-.14,19-1.44,6-3.72,11.83-5.67,17.67-.63,1.87,2.18,2.53,2.89.8,2.7-6.61,3.1-13.8,4.86-20.66a84.73,84.73,0,0,1,3.57-9.74c1.22-3.15,2-6.5,1-9.83-.55-1.84-3.44-1.06-2.89.8,1,3.24-.24,6.46-1.48,9.46a62.47,62.47,0,0,0-3.29,9.38c-1.57,6.6-2.06,13.46-4.64,19.79l2.89.8c2-6,4.37-12,5.79-18.13,1.47-6.4.88-12.85.13-19.3-.22-1.89-3.22-1.92-3,0Z" transform="translate(-48.11 -60.83)"/><path class="cls-1" d="M420.39,185.26a7.35,7.35,0,0,1-1,2.41c-.11.18-.22.36-.34.53a2.65,2.65,0,0,0-.16.23l-.13.16a10.59,10.59,0,0,1-1.05,1.07l2.36,1.81,6-9.92a1.5,1.5,0,1,0-2.59-1.51l-6,9.92a1.49,1.49,0,0,0,.38,1.93,1.52,1.52,0,0,0,2-.11,11.11,11.11,0,0,0,3.42-5.72,1.53,1.53,0,0,0-1-1.85,1.52,1.52,0,0,0-1.84,1Z" transform="translate(-48.11 -60.83)"/><path class="cls-1" d="M264.78,93.68c-4.32.07-8.63,0-12.94-.06-2.07,0-4.14,0-6.21.07a15,15,0,0,0-5.15.85,4.58,4.58,0,0,0-2.88,3.55,7.56,7.56,0,0,0,1.43,5,22.79,22.79,0,0,0,7.8,7.57c1.42.84,3.15-1.23,1.82-2.35-2.15-1.81-4.69-3.85-5.47-6.67-.54-2-.08-4.7,2-5.51a8.61,8.61,0,0,1,4.25,0c1.7.26,3.41.46,5.13.55a46.18,46.18,0,0,0,10.5-.72c1.9-.34,1.1-3.23-.79-2.89a42.93,42.93,0,0,1-12.6.37c-3.27-.39-7-1.41-9.63,1.19a8.07,8.07,0,0,0-1.8,7.8c.93,3.36,3.66,5.82,6.24,8l1.81-2.36a19.61,19.61,0,0,1-6.5-6.15c-.64-1-1.82-2.68-1.11-3.86.59-1,2.21-1.11,3.23-1.2,6.89-.61,13.9,0,20.82-.13,1.93,0,1.93-3,0-3Z" transform="translate(-48.11 -60.83)"/><path class="cls-1" d="M264.4,112.28a11.89,11.89,0,0,0,7.32-.21,1.52,1.52,0,0,0,1-1.85c-.87-2.07-2.75-2.8-4.9-2.84a38.37,38.37,0,0,0-8,.9c-4.81,1-9.63,3.3-12,7.8a1.51,1.51,0,0,0,2.36,1.82c3.59-3.42,7.67-7.35,12.82-8a2.84,2.84,0,0,1,2.76.68,7.47,7.47,0,0,1,1.1,2.16c.73,1.88,1.44,3.59,3.1,4.83,1.05.78,2.59-.52,2.2-1.7a34.59,34.59,0,0,0-1.32-3.37c-.42-.93-.9-1.93-2-2.19-2.12-.51-3.26,2.06-2.72,3.76a3.35,3.35,0,0,0,4.49,2c2.22-.87,2.84-3.27,2.39-5.41a1.53,1.53,0,0,0-2.21-.9,3.49,3.49,0,0,0-1.33,4.88,3.38,3.38,0,0,0,5.17.38,2.68,2.68,0,0,0-1.51-4.68,15.18,15.18,0,0,1-2.78-.1,3.52,3.52,0,0,1-2.28-2.14l-2.51,1.46,2.06,2.19c1,1,3.06,0,2.51-1.46a5.57,5.57,0,0,0-3.5-3.43,1.46,1.46,0,0,0-1.46.39,2.79,2.79,0,0,0-.21,3.65,2.74,2.74,0,0,0,3.62.49c1.61-1,.11-3.64-1.51-2.59l.22.57-1.46.38a2.33,2.33,0,0,1,1.41,1.34l2.5-1.46-2.06-2.2c-1-1.05-3,0-2.51,1.46a6.64,6.64,0,0,0,5.25,4.42,8.47,8.47,0,0,0,1.67,0l.75,0c.07-.19-.36-.34-.38-.35-.21-.06-.35.25-.49,0s.16-.51.35-.6l-2.21-.9c.13.6.14,1.65-.61,1.85-.31.08-.71-.09-.43-.23l-1.15.15c-.05,0,.53,1.33.6,1.51.27.65.5,1.31.73,2l2.2-1.69c-1.56-1.16-1.82-3.74-2.74-5.35-1.33-2.32-3.56-3-6.13-2.68-5.86.78-10.43,4.93-14.54,8.84l2.35,1.82c1.8-3.4,5.27-5.23,8.89-6.12a42.44,42.44,0,0,1,6.36-1c.81-.08,3.7-.6,4.17.51l1-1.85a9,9,0,0,1-5.72.22,1.5,1.5,0,0,0-.8,2.89Z" transform="translate(-48.11 -60.83)"/><path class="cls-1" d="M273,117.33q1.74,1.55,3.31,3.24c1.14,1.23,3.33-.39,2.36-1.81a11.77,11.77,0,0,1-1.69-3.69l-1.45,1.9a8,8,0,0,1,3.36.47c1.3.46,2.26-1.13,1.69-2.21a9.38,9.38,0,0,0-3.32-3.53v2.59l1.52-.65c1.18-.5.84-2.5-.36-2.74a5.35,5.35,0,0,1-1.81-.67c-.51-.32-.91-.89-1.5-1.06a7.65,7.65,0,0,0-2,0,16.51,16.51,0,0,1-1.86,0,6.34,6.34,0,0,1-3-1.12l.05.28c.08-.16.16-.32.25-.48l.49-.94,1.15-2.17c.75-1.43-1.23-3.2-2.36-1.82l-2,2.47,2.51,1.46a9.68,9.68,0,0,1,1.79-4.46l-2.8-.75-.48,3.74a1.5,1.5,0,0,0,3,0l.48-3.74a1.49,1.49,0,0,0-1.1-1.45,1.57,1.57,0,0,0-1.69.69,11.38,11.38,0,0,0-2.09,5.18,1.57,1.57,0,0,0,.69,1.69,1.51,1.51,0,0,0,1.81-.23l2-2.48-2.35-1.82-1.15,2.18a11.43,11.43,0,0,0-1,2.14c-.43,1.48.48,2.59,1.66,3.36,2.22,1.45,5.05,1.4,7.59,1.25l-1.06-.44a8,8,0,0,0,4,2.11l-.35-2.74-1.52.65c-1.1.46-.85,2,0,2.59a6.32,6.32,0,0,1,2.24,2.46l1.69-2.21a10.45,10.45,0,0,0-4.15-.57,1.52,1.52,0,0,0-1.44,1.9,14,14,0,0,0,2,4.4l2.36-1.82q-1.59-1.7-3.31-3.24c-1.45-1.27-3.57.84-2.13,2.12Z" transform="translate(-48.11 -60.83)"/><path class="cls-1" d="M354.2,162.31l1.58-.16a1.53,1.53,0,0,0,1.44-1.9,5,5,0,0,0-5.07-4,1.51,1.51,0,0,0-1.45,1.89,5.42,5.42,0,0,0,6.78,3.77,1.52,1.52,0,0,0,.89-2.2,5.45,5.45,0,0,0-3.15-2.9c-1.42-.5-3.24-.25-3.57,1.48-.58,3.08,4,4.95,6.31,5.5,1,.25,2.31-.72,1.85-1.84-1.92-4.61-7.34-4.32-11-2.15-2.3,1.35-4.42,3-6.7,4.4a85.57,85.57,0,0,1-7.54,4.08l1.52,2.59a19.8,19.8,0,0,0,4.9-3.68c1.14-1.18-.39-3.38-1.82-2.36l-6.76,4.79c-1.56,1.11-.06,3.71,1.52,2.59l6.75-4.79-1.81-2.35a17.31,17.31,0,0,1-4.3,3.21c-1.71.92-.2,3.42,1.52,2.59A86.47,86.47,0,0,0,347.84,164c1.61-1.12,3.36-2.5,5.35-2.79,1.29-.19,3.16.17,3.73,1.52l1.84-1.85a8.56,8.56,0,0,1-3.73-1.78s-.53-.48-.44-.49l-.51,1a1.44,1.44,0,0,1,.48.2,2.76,2.76,0,0,1,1.22,1.43l.9-2.2a2.4,2.4,0,0,1-3.09-1.67l-1.44,1.9a2,2,0,0,1,2.18,1.8l1.45-1.89-1.58.16c-1.91.19-1.93,3.19,0,3Z" transform="translate(-48.11 -60.83)"/><path class="cls-1" d="M358.15,164.56l1.46-.43a1.51,1.51,0,0,0-.4-2.95l-2.54.09c-.73,0-1.6.67-1.5,1.5a3.12,3.12,0,0,0,6,.95,3.65,3.65,0,0,0-.7-3.87,4.57,4.57,0,0,0-4.13-1.19,1.5,1.5,0,0,0-1.1,1.45c.16,1.75,1.45,3.49,3.42,3.1a2.56,2.56,0,0,0,1.65-4c-2.09-3.1-6.77-3.43-9.87-2l1.51,2.59,1.14-.61c1.54-.82.45-3.11-1.16-2.74a13.77,13.77,0,0,0-6.48,3.53,1.5,1.5,0,0,0,1.82,2.35,4.08,4.08,0,0,0,2.14-3.55,1.51,1.51,0,0,0-2.56-1.06A48.37,48.37,0,0,1,334.63,168a1.5,1.5,0,0,0,1.51,2.59l1.38-.69c1.64-.82.39-3-1.16-2.74a6.61,6.61,0,0,0-4.18,2.44c-1.19,1.5.92,3.63,2.12,2.12a4.23,4.23,0,0,1,2.86-1.67L336,167.29l-1.37.69,1.51,2.59A50.9,50.9,0,0,0,349,159.87l-2.56-1.06a1,1,0,0,1-.66,1l1.82,2.36a10.79,10.79,0,0,1,5.16-2.76l-1.16-2.74-1.13.61c-1.73.92-.21,3.39,1.51,2.59a5.24,5.24,0,0,1,3.38-.33,5.57,5.57,0,0,1,1.46.58c.38.22,1.58,1.42,1.45,0l-1.1,1.45c.45-.07,1.19.11,1.29.63a.76.76,0,0,1-.09.49c-.05.14-.2-.25-.16.09l-1.5,1.5,2.54-.09-.4-2.94-1.46.42c-1.85.54-1.06,3.44.8,2.9Z" transform="translate(-48.11 -60.83)"/><path class="cls-1" d="M373.67,184l4.76,5a1.51,1.51,0,0,0,2.51-1.46,11,11,0,0,0-5.62-6.54l-1.16,2.74a6.16,6.16,0,0,1,3.92,6.56l2.8-.76a10,10,0,0,1-1.17-4.84l-1.9,1.45c3.24.88,4.69,4.47,5.78,7.32a1.51,1.51,0,0,0,2.89,0,8.57,8.57,0,0,1,7-5.55l-.8-2.89-7.21,2.48,1.15,2.74a32.49,32.49,0,0,1,6.71-2.25c1.56-.35,4.25-1.18,5.52.19l1.06-2.56-6.1-.55a1.51,1.51,0,0,0-.76,2.8l2.13,1.08a1.54,1.54,0,0,0,1.81-.24c1.55-1.62,3.94-1.5,6-1.55,2.34,0,4.71-.18,6.79-1.38l-1.51-2.59a9.09,9.09,0,0,1-4.8,1.39v3a82.44,82.44,0,0,0,12.83-2.52,1.5,1.5,0,0,0-.79-2.89,78.49,78.49,0,0,1-12,2.41c-1.87.22-2,3,0,3a12.13,12.13,0,0,0,6.31-1.8,1.5,1.5,0,0,0-1.51-2.59c-2.09,1.2-4.64.91-7,1s-4.74.59-6.46,2.38l1.82-.23-2.13-1.08-.75,2.79,6.1.55c1.37.13,1.87-1.68,1.06-2.56-1.85-2-4.68-1.66-7.1-1.23a36,36,0,0,0-8.76,2.82c-1.53.71-.45,3.3,1.16,2.74l7.21-2.48a1.5,1.5,0,0,0-.8-2.89,11.48,11.48,0,0,0-9.05,7.64h2.89c-1.49-3.89-3.49-8.23-7.87-9.41a1.51,1.51,0,0,0-1.9,1.44,13.32,13.32,0,0,0,1.58,6.36c.76,1.44,2.64.59,2.79-.76a9.14,9.14,0,0,0-6.12-9.45c-1.59-.56-2.69,2-1.16,2.74a8,8,0,0,1,4.25,4.75l2.5-1.46-4.76-5c-1.33-1.4-3.45.72-2.12,2.13Z" transform="translate(-48.11 -60.83)"/><path class="cls-1" d="M401.26,184.1a14.2,14.2,0,0,1-4.86-1c-1.55-.61-3-1.93-4.78-1.36a6.58,6.58,0,0,0-2.08,1.46L387.39,185l-4.3,3.69,2.13,2.12a29.94,29.94,0,0,1,9-6.09,1.5,1.5,0,1,0-1.51-2.59,32.41,32.41,0,0,0-9.58,6.56c-1.39,1.37.68,3.36,2.13,2.12L389,187.6l2-1.73,1-.87s.4-.41.49-.42c.48,0,1.3.63,1.72.84a17.67,17.67,0,0,0,2.22.88,17.35,17.35,0,0,0,4.79.8c1.93.06,1.93-2.94,0-3Z" transform="translate(-48.11 -60.83)"/><path class="cls-1" d="M396.54,185.42a22.05,22.05,0,0,0,12.57-.4,1.5,1.5,0,0,0-.8-2.89,76.19,76.19,0,0,1-12.19,2,1.5,1.5,0,0,0,0,3,82.61,82.61,0,0,0,13-2.13l-.8-2.89a19.07,19.07,0,0,1-11,.4,1.5,1.5,0,0,0-.8,2.89Z" transform="translate(-48.11 -60.83)"/><path class="cls-1" d="M379.9,187.55a1.5,1.5,0,0,0,0-3,1.5,1.5,0,0,0,0,3Z" transform="translate(-48.11 -60.83)"/><path class="cls-1" d="M381.34,183.63a8.82,8.82,0,0,0-6.83-3.93l.4,3c.32-.07-.29,0,0,0s0,0,0,0a1.32,1.32,0,0,1,.3.06l.19.07-.17-.07c.05,0,.23.12.28.15l.17.11-.13-.1a.76.76,0,0,1,.23.21s.32.33.17.16.08.13.11.17l.18.3.15.31a1,1,0,0,1,.07.15c-.06-.16-.08-.19,0-.09q.24.69.45,1.38l2.74-1.15a11.79,11.79,0,0,0-6.09-4.67,1.51,1.51,0,0,0-1.85,1,1.54,1.54,0,0,0,1.05,1.85l.4.14.2.08c-.19-.09-.21-.09-.06,0s.46.21.68.33l.65.38.36.24.19.14c-.19-.13.15.12.19.15l.32.28c.19.17.37.35.54.53s.33.37.49.56.09.12,0-.05l.13.18.24.35a1.52,1.52,0,0,0,1.88.62,1.5,1.5,0,0,0,.86-1.77A8.42,8.42,0,0,0,378,181a4.14,4.14,0,0,0-3.91-1.29A1.49,1.49,0,0,0,373,181.4a1.51,1.51,0,0,0,1.47,1.3c.1,0,.34,0,.42,0-.23,0-.26,0-.09,0l.21,0c.24.05.48.11.71.18l.4.14.1,0c.15.06.13,0-.07,0a2.91,2.91,0,0,1,.7.36,7.48,7.48,0,0,1,.66.43c.3.2-.24-.21,0,0l.32.28a6.26,6.26,0,0,1,.51.52c0,.06.09.11.13.16l0,0a1.76,1.76,0,0,1,.25.34,1.5,1.5,0,1,0,2.59-1.51Z" transform="translate(-48.11 -60.83)"/><path class="cls-1" d="M425,230.24a38.75,38.75,0,0,1,9.95-1.16,1.52,1.52,0,0,0,.76-2.8l-5-2.7-2.52-1.35a6.05,6.05,0,0,0-2.67-1,2.72,2.72,0,0,0-2.39,4c.78,1.69,2.69,2,4.35,2.07a1.51,1.51,0,0,0,1.3-2.25,5,5,0,0,0-2.78-2,1.53,1.53,0,0,0-1.7.68,3.24,3.24,0,0,0,1.19,4.44,3.1,3.1,0,0,0,2.56.14,3.27,3.27,0,0,0,1.92-2,1.52,1.52,0,0,0-1-1.85q-.26-.08,0,0c-.15-.09-.16-.1,0,0-.12-.12-.13-.13,0,0-.08-.15-.09-.16,0,0a1.54,1.54,0,0,0-1.85-1.05,1.51,1.51,0,0,0-1,1.85,3.21,3.21,0,0,0,2.19,2.16l-1.05-1.85c.07-.15.06-.16,0,0,.1-.13.09-.13,0,0,.13-.09.12-.1,0,0,.16-.06.16-.06,0,0s-.17,0-.06,0h-.06c.18,0,.18,0,0,0,.15.07.15.07,0,0,.13.12.14.12,0,0,.1.15.1.15,0,0l-.06-.11c.06.16.07.17,0,0s0-.16,0,0a2,2,0,0,1,0-.25c0,.19,0,.2,0,0-.07.16-.07.17,0,0l-1.69.69s.42.16.23.07a2.44,2.44,0,0,1,.41.24c-.18-.13.18.16.18.17s.28.35.17.18l1.29-2.26c-.29,0-.59,0-.87,0s.29.09-.15,0c-.13,0-.26-.06-.38-.11s.06.06-.14-.07l-.08-.05c.07.06.06,0-.05,0,.08,0,.1.22,0-.06s.15.18,0,0c.13.19-.11.13,0,0s-.09.25,0,0a.65.65,0,0,1-.28.37l-.08,0h0c.11,0,.1,0,0,0l.16,0,.16.05h0c.32.14.61.32.91.48l7.53,4.05.76-2.79a41.87,41.87,0,0,0-10.75,1.26,1.5,1.5,0,0,0,.8,2.9Z" transform="translate(-48.11 -60.83)"/><path class="cls-1" d="M469.15,210.61c-1.46-.74-3.07-1.47-4.75-1.1a3.8,3.8,0,0,0-2.93,2.51c-.49,1.68.32,3.71.69,5.34a5.34,5.34,0,0,0,.3,1.34c0,.23,0,.29.16.17s.15-.1-.16,0a15.15,15.15,0,0,0-2.91.5c-3.42.58-7,.93-10.32,1.84-2.6.7-5.15,2.11-5.91,4.88a1.52,1.52,0,0,0,1.85,1.85,16,16,0,0,1,10.49.1c1.12.39,2.13,1.15,3.27,1.46,2.76.74,3.5-3,4.25-4.82l3.24-8c.65-1.59-1.92-2.6-2.74-1.15a37.38,37.38,0,0,1-7.07,8.91,1.51,1.51,0,0,0,1.82,2.36,8,8,0,0,0,2.82-3,1.52,1.52,0,0,0-1.3-2.25A18,18,0,0,0,451.1,223c-1.55.68-.45,3.27,1.16,2.74a32,32,0,0,1,4.94-1.19c1.71-.27,1.23-2.91-.4-2.94a65.57,65.57,0,0,0-9.19.47,1.5,1.5,0,0,0,0,3,73.61,73.61,0,0,1,9.82,1.23v-2.89a23.52,23.52,0,0,1-5.38,1.06c-1.91.14-2,3,0,3h3.41a1.5,1.5,0,0,0,0-3h-3.41v3a26.56,26.56,0,0,0,6.18-1.17c1.32-.41,1.54-2.59,0-2.89a77.66,77.66,0,0,0-10.62-1.34v3a65.57,65.57,0,0,1,9.19-.47l-.4-3a31.17,31.17,0,0,0-4.94,1.19l1.16,2.74a14.85,14.85,0,0,1,7.33-1.12l-1.29-2.26a5,5,0,0,1-1.74,1.94l1.82,2.36a40.39,40.39,0,0,0,7.53-9.53l-2.74-1.16L460.62,223l-.68,1.69c-.18.46-.83,1.41-.76,1.88-.16.24-.09.27.23.09.35,0,.42-.08.19-.16s-.49-.26-.64-.33c-.52-.27-1-.5-1.6-.72a19.26,19.26,0,0,0-13-.45l1.85,1.85c.59-2.16,3.31-2.74,5.22-3.11,3.1-.61,6.24-1.07,9.35-1.6,1.22-.2,3-.18,3.92-1.08s.81-2.39.54-3.63c-.16-.75-.33-1.49-.5-2.23-.12-.53-.67-1.87-.38-2.41.57-1.09,2.61.05,3.27.38,1.72.87,3.24-1.72,1.51-2.59Z" transform="translate(-48.11 -60.83)"/><path class="cls-1" d="M467.75,213.8a3.43,3.43,0,0,0-1.44-3.76l-.75,2.79a16.33,16.33,0,0,1,4.52,1l.8-2.89-4-.6a1.54,1.54,0,0,0-1.84,1,1.52,1.52,0,0,0,1,1.85,25.22,25.22,0,0,0,6.64.81,1.5,1.5,0,0,0,0-3l-7.07-.88c-.84-.11-1.45.77-1.5,1.5a44.47,44.47,0,0,1-1.73,9.7l2.95.4a1.19,1.19,0,0,1,.86-1.22L464,219.29a12.2,12.2,0,0,1-1.73,6.63,1.5,1.5,0,0,0,2.59,1.51,15.14,15.14,0,0,0,2.14-8.14,1.53,1.53,0,0,0-2.26-1.3,4.07,4.07,0,0,0-2.34,3.81,1.5,1.5,0,0,0,2.94.4,48.76,48.76,0,0,0,1.84-10.5l-1.5,1.5,7.07.88v-3a21.72,21.72,0,0,1-5.84-.7l-.8,2.89,4,.6a1.5,1.5,0,0,0,.8-2.89,19,19,0,0,0-5.32-1.15,1.53,1.53,0,0,0-1.45,1.1,1.57,1.57,0,0,0,.69,1.7c.11.08.07.3.05.37a1.51,1.51,0,0,0,2.9.8Z" transform="translate(-48.11 -60.83)"/><path class="cls-1" d="M467.74,230.55A58.1,58.1,0,0,0,480.88,232a1.51,1.51,0,0,0,.4-2.95c-4.35-1.15-8.87-1.19-13.34-1.19a1.5,1.5,0,0,0,0,3l12.23.57a1.51,1.51,0,0,0,.4-2.95l-11.94-2.66-.4,2.95,9.78.76a1.5,1.5,0,0,0,1.5-1.5,1.54,1.54,0,0,0-1.5-1.5l-9.78-.76c-1.68-.13-2,2.58-.4,2.95l11.94,2.66.4-2.95-12.23-.57v3c4.21,0,8.45,0,12.54,1.08l.4-2.94a54.45,54.45,0,0,1-12.34-1.35,1.5,1.5,0,1,0-.8,2.89Z" transform="translate(-48.11 -60.83)"/><path class="cls-1" d="M460.6,231.07a1.5,1.5,0,0,0,0-3,1.5,1.5,0,0,0,0,3Z" transform="translate(-48.11 -60.83)"/><path class="cls-1" d="M461.4,231.41l21.09,1.83a1.51,1.51,0,0,0,1.44-1.9c-.55-1.91-2.22-2.1-3.58-3.2a4.71,4.71,0,0,1-1.39-4c.3-3.94,4.2-6.39,7.19-8.34,1.15-.75.83-2.93-.76-2.8-3.46.3-6.16,2.46-8.59,4.78a10.86,10.86,0,0,0-2.82,3.86,5.33,5.33,0,0,0-.35,2.2,6.91,6.91,0,0,0,.27,1.26c.29,1.14-.27-.27,1.08-.3l1.44,1.9a12.64,12.64,0,0,1,6.18-8.48l-1.51-2.59c-3.49,2.47-6.54,6.49-7,10.85-.27,2.51,1.59,3.46,3.79,3.51a49.09,49.09,0,0,0,8.3-.59c1.66-.26,1.28-3.08-.4-2.95a33.22,33.22,0,0,1-6.76-.18c-1.66-.21-2.06,2.67-.4,3a47.52,47.52,0,0,0,9.3.67c1.93,0,1.94-3,0-3a43.19,43.19,0,0,1-8.5-.56l-.4,2.94a33.22,33.22,0,0,0,6.76.18l-.4-2.95a44.24,44.24,0,0,1-5.63.48c-.47,0-.93,0-1.4,0a4.51,4.51,0,0,1-1.27,0c0,.14-.05.14,0,0a1.58,1.58,0,0,1,.05-.38,8.08,8.08,0,0,1,.29-1.1,13.83,13.83,0,0,1,5.23-7.24c1.55-1.1.2-3.56-1.51-2.59a15.57,15.57,0,0,0-7.56,10.27,1.52,1.52,0,0,0,1.45,1.9,2.08,2.08,0,0,0,2-2.45c-.05-.64-.38-1.24-.38-1.88a3.74,3.74,0,0,1,.9-2,18.87,18.87,0,0,1,3.56-3.41,8.32,8.32,0,0,1,4.32-2l-.75-2.79c-3.65,2.37-7.82,5.26-8.55,9.89a8.57,8.57,0,0,0,.87,5.58,6.32,6.32,0,0,0,1.94,2.11c.49.34,2,.75,2.14,1.36l1.45-1.9-21.09-1.83c-1.92-.16-1.91,2.84,0,3Z" transform="translate(-48.11 -60.83)"/><path class="cls-1" d="M494.18,223.35l-3.53,1.79,2.05,2.05a.92.92,0,0,1,1-.41L493,224c-2.31,1.3-5,2.92-7.75,2.61-1.69-.18-3.79-1.36-3.95-3.24l-2.94.4a6.76,6.76,0,0,0,4.51,5.21,1.51,1.51,0,0,0,1.69-.69c1-1.42-.26-3-1.57-3.61-1.66-.76-3.36-1.46-5-2.19l.54,2.05c.17-.36.31-.56.74-.57,1.93,0,1.94-3,0-3a3.69,3.69,0,0,0-3.33,2.06,1.53,1.53,0,0,0,.54,2l3.25,1.41c.4.17,2.24.73,2.29,1.09v-.79h0l1.7-.69a3.82,3.82,0,0,1-2.42-3.12c-.27-1.65-3.08-1.28-2.95.4a7,7,0,0,0,5.84,6.09c3.73.74,7.23-1.1,10.37-2.87a1.51,1.51,0,0,0-.75-2.8,3.87,3.87,0,0,0-3.61,1.9c-.83,1.34.78,2.7,2.06,2l3.52-1.78c1.72-.88.21-3.47-1.51-2.6Z" transform="translate(-48.11 -60.83)"/><path class="cls-1" d="M452.69,232a97.87,97.87,0,0,1-9.84,0,1.5,1.5,0,0,0-1.3.74,31.19,31.19,0,0,1-12.75,12l1.82,2.36,13.53-11c1.5-1.21-.64-3.33-2.12-2.12L428.5,245c-1.38,1.12.38,3.09,1.82,2.36a34.28,34.28,0,0,0,13.82-13.09l-1.29.74a97.87,97.87,0,0,0,9.84,0c1.92-.1,1.93-3.1,0-3Z" transform="translate(-48.11 -60.83)"/><path class="cls-1" d="M434.88,236.75a8.27,8.27,0,0,0-3.11-3.21,4.15,4.15,0,0,0-4.48.44c-1.32,1.11-1.29,3-1,4.56a8.9,8.9,0,0,0,1.63,3.66,9.21,9.21,0,0,0,3.69,3,1.52,1.52,0,0,0,1.66-.12,1.47,1.47,0,0,0,.54-1.57,11.66,11.66,0,0,0-2.52-3.93,11.35,11.35,0,0,0-1.79-1.45l-.45-.3-.11-.07c.13.1.13.1,0,0s-.12-.13,0,0a.69.69,0,0,1,.09.34.66.66,0,0,1-.12.33q-.57.45-.24.27h-1.51a13.12,13.12,0,0,1,2.07,1.15l.43.31c.14.11.16.12.06,0l.24.2c.31.26.61.53.9.82a1.51,1.51,0,0,0,2,.12,1.53,1.53,0,0,0,.39-1.94A10.44,10.44,0,0,0,429,235a1.5,1.5,0,1,0-1.52,2.59,8.31,8.31,0,0,1,1.06.68c-.2-.15.05,0,.08.07l.27.23.45.44.42.47c.07.08.12.15,0,0a2.83,2.83,0,0,1,.2.28,8.9,8.9,0,0,1,.68,1.15l2.35-1.82a14.94,14.94,0,0,0-3.48-2.59c-.27-.14-.55-.28-.83-.4a1.72,1.72,0,0,0-2,.34,2.35,2.35,0,0,0-.53,2.37,3.47,3.47,0,0,0,1.61,1.77l.35.23.26.19c.23.18.44.37.65.57s.46.47.68.72l.12.15c.09.11.17.23.25.35a9.19,9.19,0,0,1,.52.85c.07.12.13.25.19.38l.12.26c-.05-.14-.05-.13,0,0l2.2-1.7a8.1,8.1,0,0,1-.93-.47c-.15-.09-.3-.18-.44-.28s-.31-.24-.11-.08a8.53,8.53,0,0,1-.77-.7l-.35-.39c-.23-.26.1.15-.09-.11a8.76,8.76,0,0,1-.56-.88l-.24-.46c-.16-.31.06.17-.05-.13a8.13,8.13,0,0,1-.31-1c0-.17-.08-.34-.11-.51s0,.21,0-.18c0-.16,0-.32,0-.49s.08-.6,0-.29l.06-.26c.06-.17.06-.18,0,0,.09-.15.09-.16,0,0a.69.69,0,0,1,.11-.13c.08-.08.05-.06-.08.05l.19-.12c.15-.08.13-.07-.05,0l.22-.07q.26,0-.06,0l.24,0c.05,0,.49.05.27,0s.23.07.27.07.15,0,0,0l.21.1s.5.34.28.16l.36.33a2.82,2.82,0,0,1,.33.36l.19.21c-.09-.11-.08-.1,0,0,.22.31.43.62.64.94a1.5,1.5,0,1,0,2.59-1.52Z" transform="translate(-48.11 -60.83)"/><path class="cls-1" d="M430.14,207.93a51.2,51.2,0,0,0-8.88,1.26,1.51,1.51,0,0,0,0,2.89c4.39,1.31,9.08.32,13.46-.58a101.18,101.18,0,0,0,13.55-3.77c1.5-.54,1.39-3-.4-2.95-4.08.19-8,1.37-11.85,2.48s-7.81,2.1-11.79,1.4c-1.89-.33-2.7,2.56-.8,2.89,8.51,1.49,16.09-3.38,24.44-3.77l-.4-2.95a101.85,101.85,0,0,1-12.61,3.59c-4.11.88-8.66,2-12.81.77v2.89a47.07,47.07,0,0,1,8.09-1.15c1.92-.1,1.94-3.1,0-3Z" transform="translate(-48.11 -60.83)"/><path class="cls-1" d="M419.07,217.05,410.83,215a1.5,1.5,0,0,0-1.84,1,1.54,1.54,0,0,0,1,1.85,36.31,36.31,0,0,0,9.26,2.12,1.47,1.47,0,0,0,1.44-1.1,1.51,1.51,0,0,0-.69-1.69,39.57,39.57,0,0,0-7.44-3.05,1.51,1.51,0,0,0-1.77.87,1.49,1.49,0,0,0,.62,1.87l6,2.76a1.55,1.55,0,0,0,2.06-.54,1.52,1.52,0,0,0-.54-2l-6-2.76L411.8,217c1.2.36,2.39.77,3.55,1.24l.61.26.82.37c.59.28,1.17.57,1.75.88l.76-2.8a30.38,30.38,0,0,1-4.18-.7,37.72,37.72,0,0,1-4.28-1.31l-.8,2.89,8.24,2.08a1.5,1.5,0,1,0,.8-2.89Z" transform="translate(-48.11 -60.83)"/><path class="cls-1" d="M495.06,137.69a18.58,18.58,0,0,0-3.28,2.92,1.5,1.5,0,0,0,1.46,2.5,10,10,0,0,0,4.11-2.32c.69-.66,1.74-1.67,1.46-2.71a2.55,2.55,0,0,0-1.87-1.71c-1.56-.39-3.13.42-4.46,1.16a19.83,19.83,0,0,0-4.08,3,1.49,1.49,0,0,0-.31,1.64,1.56,1.56,0,0,0,1.37.92,22.48,22.48,0,0,0,8.29-.56,1.5,1.5,0,1,0-.79-2.89,14.86,14.86,0,0,0-8.27,5.64,1.5,1.5,0,0,0,.11,1.67,1.55,1.55,0,0,0,1.58.54,9.6,9.6,0,0,0,3.62-1.33l-1.82-2.35L492,144c-.28.26.13-.07-.05,0s-.31.21-.48.3l-.23.11c.19-.09.07,0-.06,0a5.54,5.54,0,0,1-.55.14c-.17,0-.12,0,0,0l-.26,0c-.19,0-.38,0-.57,0s.24,0,0,0l-.24-.06-.31-.09c-.21,0,.3.14-.05,0V147l7.37-5.19a1.5,1.5,0,0,0-1.51-2.59l-7.37,5.19a1.54,1.54,0,0,0-.75,1.29,1.49,1.49,0,0,0,.75,1.3A5.86,5.86,0,0,0,494.3,146a1.51,1.51,0,0,0-1.81-2.36c-.23.14-.46.27-.7.39a3.27,3.27,0,0,1-.59.25,9.07,9.07,0,0,1-1.62.38l1.7,2.21.16-.23c-.09.12-.08.12,0,0s.24-.29.36-.42c.25-.28.51-.55.78-.8s.48-.44.73-.65.15-.11,0,0l.22-.17.46-.31a10.48,10.48,0,0,1,3.7-1.65l-.79-2.89a20,20,0,0,1-7.5.45l1.06,2.56c.3-.29.6-.56.92-.83l.48-.39c-.1.08-.08.07.06,0l.25-.19a19.26,19.26,0,0,1,2-1.26l1-.52c.19-.08.19-.08,0,0l.21-.07a3.39,3.39,0,0,1,.43-.11c.17,0,.15,0-.07,0h.43c-.22,0-.26,0-.1,0s.13,0-.08-.05c.13.08.11.06-.08-.08.11.11.09.08,0-.09l.09.18v-1.51s-.24.32-.13.18l-.14.17c-.14.15-.28.31-.43.45a5.89,5.89,0,0,1-.45.42l-.17.14-.18.13a7.69,7.69,0,0,1-1.07.63l-.2.09-.2.08q-.33.12-.66.21l1.46,2.51a16,16,0,0,1,1.35-1.38l.7-.61.18-.14c-.07.06-.07.06,0,0l.44-.32a1.5,1.5,0,0,0-1.52-2.59Z" transform="translate(-48.11 -60.83)"/><path class="cls-1" d="M506.09,146a19.91,19.91,0,0,1,7.43,3.27l-.69-1.7c-.22.57-1.31.82-1.82,1-1.33.42-2.68.8-4,1.17q-4,1.11-8,2l1.15,2.74a72.3,72.3,0,0,1,10.34-3.78L509.36,148a2.51,2.51,0,0,1-2.49.08l-.35,2.74,4.66-1.21a1.52,1.52,0,0,0,.36-2.74l-8.91-5.49c-1.65-1-3.13,1.55-1.51,2.59a20.17,20.17,0,0,1,6.34,6.56l2.05-2.05a9.31,9.31,0,0,0-8.93-.1c-1.7.9-.19,3.49,1.52,2.59a6.21,6.21,0,0,1,5.9.1,1.51,1.51,0,0,0,2.05-2.05,23.45,23.45,0,0,0-7.42-7.64l-1.51,2.59,8.9,5.49.36-2.74-4.66,1.21a1.52,1.52,0,0,0-.36,2.74,5.58,5.58,0,0,0,5.51-.08,1.51,1.51,0,0,0-1.15-2.75,77.61,77.61,0,0,0-11.06,4.09c-1.6.73-.43,3.11,1.16,2.74,3-.7,6.07-1.49,9.08-2.35,2.51-.72,5.76-1.2,6.82-3.93a1.5,1.5,0,0,0-.69-1.69,21.93,21.93,0,0,0-8.14-3.57c-1.88-.4-2.69,2.49-.8,2.89Z" transform="translate(-48.11 -60.83)"/><path class="cls-1" d="M479.16,159.85A29.56,29.56,0,0,0,467.43,156a1.51,1.51,0,0,0-1.44,1.1,1.55,1.55,0,0,0,.69,1.7,61.43,61.43,0,0,0,10.42,5.67l1.16-2.74a28.82,28.82,0,0,1-12.49-7l-1.46,2.51q4.71,1.34,9.26,3.13a1.52,1.52,0,0,0,1.85-1,1.54,1.54,0,0,0-1.05-1.85q-4.56-1.78-9.26-3.13a1.51,1.51,0,0,0-1.46,2.51,32,32,0,0,0,13.81,7.74,1.5,1.5,0,0,0,1.77-.87,1.48,1.48,0,0,0-.61-1.87,60.51,60.51,0,0,1-10.43-5.68l-.76,2.8a25.9,25.9,0,0,1,10.21,3.42,1.5,1.5,0,0,0,1.52-2.59Z" transform="translate(-48.11 -60.83)"/><path class="cls-1" d="M402.38,149.22l-8.15-4.41c-1.08-.58-2.65.4-2.2,1.7.86,2.5,3.32,3.33,5.69,3.83l9.72,2.06.8-2.89c-2.62-.53-5.21-1.18-7.77-2a20.23,20.23,0,0,1-3.12-1.09c-.56-.28-1.43-.71-1.46-1.43l-1.9,1.45,10.91,4.12.79-2.89c-5.42-1-10.93-.88-16.42-.67l.76,2.8,2.5-1.64c1.6-1.06.1-3.66-1.52-2.6l-2.5,1.65c-1.17.77-.81,2.86.76,2.79,5.21-.2,10.48-.42,15.63.56a1.5,1.5,0,0,0,.79-2.89l-10.91-4.12a1.5,1.5,0,0,0-1.89,1.44c.14,2.83,2.73,4.08,5.09,4.87a79.39,79.39,0,0,0,9.46,2.51c1.89.39,2.7-2.49.8-2.89L400,147.76a32.61,32.61,0,0,1-3.25-.76c-.68-.22-1.54-.56-1.79-1.29l-2.2,1.69,8.14,4.41c1.7.92,3.22-1.67,1.52-2.59Z" transform="translate(-48.11 -60.83)"/><path class="cls-1" d="M388.93,197.47c-2.21,1.76-6.28,4.75-8.86,1.91l.38,1.46a.94.94,0,0,1-.86.68c.14.09.19.11.17,0a5.19,5.19,0,0,0,.66.35,5.6,5.6,0,0,0,1.62.62,7.17,7.17,0,0,0,3.88-.45,23.59,23.59,0,0,0,3.34-1.75,7.53,7.53,0,0,1,3.17-1.23l-.39-2.95c-1.72.73-3,2-4.55,2.93a3.55,3.55,0,0,1-1.68.52,1.32,1.32,0,0,1-1.3-.56,1.51,1.51,0,0,0-2.51.66,3.63,3.63,0,0,0,1.23,3.46,4.73,4.73,0,0,0,4,.92,13.57,13.57,0,0,0,3.76-1.5,27.75,27.75,0,0,0,3.52-2.17,1.54,1.54,0,0,0,.54-2,1.51,1.51,0,0,0-2.05-.54,27,27,0,0,1-5,2.87,4.3,4.3,0,0,1-2.19.5c-.24,0-1-.35-1-.69l-2.51.66c1.25,1.57,3.58,1.74,5.36,1.09,1.93-.71,3.22-2.42,5.08-3.2a1.53,1.53,0,0,0,1.08-1.65,1.5,1.5,0,0,0-1.48-1.3,10,10,0,0,0-4.25,1.4,19.16,19.16,0,0,1-3.74,1.92,4.13,4.13,0,0,1-1.6.21,5,5,0,0,1-1.57-.66c-1.47-.67-3-.62-3.71,1.07a1.5,1.5,0,0,0,.39,1.46,6.93,6.93,0,0,0,6.47,1.83c2.54-.46,4.66-2.17,6.63-3.74a1.5,1.5,0,0,0,0-2.12,1.53,1.53,0,0,0-2.12,0Z" transform="translate(-48.11 -60.83)"/><path class="cls-1" d="M397.31,200.93a93.73,93.73,0,0,0,13.37-4.19,1.53,1.53,0,0,0,1.07-1.65,1.51,1.51,0,0,0-1.47-1.3,25.6,25.6,0,0,0-13,3c-1.48.79-.47,3.32,1.15,2.74a122,122,0,0,0,11.77-4.88,1.51,1.51,0,0,0,.54-2,1.54,1.54,0,0,0-2.05-.54,116.84,116.84,0,0,1-11,4.58l1.15,2.74a22.52,22.52,0,0,1,11.47-2.58l-.4-2.95a93.77,93.77,0,0,1-13.37,4.2c-1.88.44-1.08,3.33.8,2.89Z" transform="translate(-48.11 -60.83)"/><path class="cls-1" d="M418.78,189.61c-.48,3.18-1.11,6.34-1.89,9.46-.47,1.88,2.41,2.67,2.89.8A60.71,60.71,0,0,0,421.63,188a1.51,1.51,0,0,0-2.95-.39l-1.45,5.95a18.52,18.52,0,0,1-.65,2.4c.08-.21-.08.17-.1.21s-.32.52-.17.33a1.82,1.82,0,0,1-.31.31c.11-.09.1-.08-.05,0,.14,0,.12,0-.05,0a1.5,1.5,0,1,0,.79,2.89c2-.65,2.76-2.61,3.23-4.51l1.66-6.82-2.95-.4a56.32,56.32,0,0,1-1.74,11l2.89.8c.78-3.12,1.41-6.28,1.9-9.46a1.56,1.56,0,0,0-1.05-1.85,1.52,1.52,0,0,0-1.85,1.05Z" transform="translate(-48.11 -60.83)"/><path class="cls-1" d="M356.6,338.46c.19.3.36.6.52.91.08.15.16.31.23.47l.07.14c0,.1,0,.06-.05-.12a2.34,2.34,0,0,1,.09.24,10.56,10.56,0,0,1,.56,2.07l1.44-1.9a23.4,23.4,0,0,0-6.36.41,1.5,1.5,0,0,0,.4,2.94l5.25-.05v-3c-.16,0-.31,0-.47,0s.24.06.07,0l-.22-.06-.18-.06c.32.07.19.08.07,0a1.06,1.06,0,0,0-.2-.12s.29.24,0,0l-.3,2.35.18-.09-.18.08s.5-.05.15-.06h.46a1.5,1.5,0,0,0,1.5-1.5,1.52,1.52,0,0,0-1.5-1.5,4.48,4.48,0,0,0-2.13.49,1.52,1.52,0,0,0-.3,2.36,3.94,3.94,0,0,0,3,1.09,1.61,1.61,0,0,0,1.06-.44,1.5,1.5,0,0,0-1.06-2.56l-5.25.05.4,2.95.73-.13.4-.07c.32-.05-.29,0,.06,0s1-.11,1.44-.13a22,22,0,0,1,2.93,0,1.43,1.43,0,0,0,1.18-.59,1.57,1.57,0,0,0,.27-1.31,11.79,11.79,0,0,0-1.72-4.42,1.5,1.5,0,0,0-2.59,1.51Z" transform="translate(-48.11 -60.83)"/><path class="cls-1" d="M353.94,343a4,4,0,0,0,4.42,0,4.22,4.22,0,0,0,1.42-1.63,4.32,4.32,0,0,0,.43-2.21,4.86,4.86,0,0,0-.43-1.53,4.2,4.2,0,0,0-.79-1.12,1.5,1.5,0,0,0-2.12,0,1.52,1.52,0,0,0,0,2.12l.21.25-.23-.31a3.4,3.4,0,0,1,.38.67l-.15-.36a3.36,3.36,0,0,1,.18.64l-.06-.4a3,3,0,0,1,0,.73l.06-.4a3.28,3.28,0,0,1-.19.68l.15-.35a3.14,3.14,0,0,1-.37.64l.23-.3a2.53,2.53,0,0,1-.49.49l.31-.24a2.49,2.49,0,0,1-.57.33l.36-.15a2.34,2.34,0,0,1-.59.16l.4-.06a1.94,1.94,0,0,1-.59,0l.4.06a3.1,3.1,0,0,1-.68-.18l.36.15a4,4,0,0,1-.54-.29,1.5,1.5,0,0,0-2.05.54,1.54,1.54,0,0,0,.54,2.05Z" transform="translate(-48.11 -60.83)"/><path class="cls-1" d="M347.07,342l-3.74-.09,1.06,2.56c-.2.15-.24.18-.11.1s.1-.05,0,0,.07,0,.13,0l-.4.05h.4l-.4-.05.24.05v-2.89l-.14,0,.39,0h-.35l.4,0c-.07,0-.35-.11-.09,0s0,0,0,0c-.28-.17.22.23,0,0s-.1-.13-.16-.16c.15.19.19.25.12.15l-.06-.09c0-.06-.07-.15-.11-.2l.06.14,0-.07a2.46,2.46,0,0,1-.07-.29l.06.4a2.41,2.41,0,0,1,0-.6l-.05.4a3.9,3.9,0,0,1,.13-.57,1.72,1.72,0,0,0,.11-.29l-.08.19.08-.17a8.9,8.9,0,0,1,.6-1l-2.8-.76a12.87,12.87,0,0,1-.05,2.91l.06-.39a12.86,12.86,0,0,1-.56,2.36,1.53,1.53,0,0,0,.69,1.7,1.83,1.83,0,0,0,.76.2,1.46,1.46,0,0,0,1.06-.44l1.16-1.41a1.5,1.5,0,0,0,0-2.12,1.53,1.53,0,0,0-2.12,0l-1.16,1.41,2.5,1.46a13.69,13.69,0,0,0,.66-5.68,1.5,1.5,0,0,0-2.8-.76,5.53,5.53,0,0,0-1.1,4.21,3.13,3.13,0,0,0,3.68,2.35,1.51,1.51,0,0,0,1.1-1.44,1.57,1.57,0,0,0-1.1-1.45,2.86,2.86,0,0,0-1.48,0,2.94,2.94,0,0,0-1.27.67,1.51,1.51,0,0,0,1.06,2.56l3.74.09a1.5,1.5,0,0,0,0-3Z" transform="translate(-48.11 -60.83)"/><path class="cls-1" d="M350.63,344.15l3.17.37v-3l-3.3.12a1.61,1.61,0,0,0-1.06.44,1.52,1.52,0,0,0-.44,1.06,1.5,1.5,0,0,0,.44,1.06l.3.24a1.57,1.57,0,0,0,.76.2,3.72,3.72,0,0,0,1.29-.11A3.67,3.67,0,0,0,353,344a1.67,1.67,0,0,0,.69-.9,1.5,1.5,0,0,0-1.05-1.85,1.52,1.52,0,0,0-1.16.16,3.55,3.55,0,0,1-.43.23l.36-.15a3.68,3.68,0,0,1-.63.17l.39-.06a2.35,2.35,0,0,1-.65,0v3l3.3-.12a1.58,1.58,0,0,0,1.06-.44,1.5,1.5,0,0,0,0-2.12l-.31-.23a1.42,1.42,0,0,0-.75-.21l-3.17-.37a1.52,1.52,0,0,0-1.06.44,1.56,1.56,0,0,0-.44,1.06,1.54,1.54,0,0,0,.44,1.06l.31.24a1.5,1.5,0,0,0,.75.2Z" transform="translate(-48.11 -60.83)"/><path class="cls-1" d="M361.7,185.58a1.5,1.5,0,0,0,0-3,1.5,1.5,0,0,0,0,3Z" transform="translate(-48.11 -60.83)"/><path class="cls-1" d="M363.31,251a70.14,70.14,0,0,0,.54-22.58l-2.89.8a65.15,65.15,0,0,1-.25,20.34c-.32,1.89,2.57,2.7,2.89.8a69.6,69.6,0,0,0,.25-21.94,1.51,1.51,0,0,0-1.85-1,1.53,1.53,0,0,0-1,1.84,65.65,65.65,0,0,1-.55,21c-.35,1.89,2.54,2.7,2.9.8Z" transform="translate(-48.11 -60.83)"/><path class="cls-1" d="M363.17,190.38a44.61,44.61,0,0,1,0,16.73c-.3,1.54,2,2.81,2.74,1.15a22.85,22.85,0,0,0-2.31-22.86,1.5,1.5,0,0,0-2.59,1.52c3.65,6.71,1.48,14.89.74,22.05-.87,8.5,1.32,16.92.74,25.45a126.73,126.73,0,0,1-2.22,15.51c-.37,1.89,2.52,2.7,2.89.8.89-4.6,1.68-9.22,2.13-13.88a75.29,75.29,0,0,0-.09-14.32,69.45,69.45,0,0,1-.54-12.56c.35-4,1.08-8,1.29-12a23.38,23.38,0,0,0-2.35-12.57L361,186.92a19.9,19.9,0,0,1,2.31,19.83l2.74,1.15a48.45,48.45,0,0,0,0-18.32c-.36-1.89-3.26-1.09-2.89.8Z" transform="translate(-48.11 -60.83)"/><path class="cls-1" d="M313.28,64l-2.1-1.71-1.46,2.5L319.17,67c1.88.45,2.68-2.43.8-2.89-3.12-.76-6.28-1.36-9.46-1.82a1.53,1.53,0,0,0-1.77.87,1.5,1.5,0,0,0,.61,1.87,37.69,37.69,0,0,0,20.3,4.8c1.92-.1,1.93-3.1,0-3a34.67,34.67,0,0,1-18.78-4.39l-1.16,2.74c3.18.46,6.34,1.07,9.46,1.82l.8-2.89-9.46-2.25c-1.34-.32-2.69,1.5-1.45,2.51l2.1,1.71a1.54,1.54,0,0,0,2.12,0,1.52,1.52,0,0,0,0-2.12Z" transform="translate(-48.11 -60.83)"/><path class="cls-1" d="M256.3,116.33c.6-.37,1.21-.73,1.83-1l1-.5.39-.17s.56-.24.28-.13a26.8,26.8,0,0,1,4-1.3l-.8-2.89-5.46,1.51,1.46,2.51.28-.26c.21-.18-.09,0,.05,0s.39-.25.6-.36l.17-.08.17-.06a5,5,0,0,1,.74-.18l-1.15-2.74a35.23,35.23,0,0,1-4.56,3,1.51,1.51,0,0,0-.54,2,1.53,1.53,0,0,0,2,.54,35.23,35.23,0,0,0,4.56-3,1.5,1.5,0,0,0-1.15-2.75,6.5,6.5,0,0,0-3.34,1.76,1.51,1.51,0,0,0,1.46,2.51l5.46-1.52a1.51,1.51,0,0,0,1.05-1.84,1.54,1.54,0,0,0-1.85-1,28,28,0,0,0-8.23,3.45,1.5,1.5,0,0,0,1.51,2.59Z" transform="translate(-48.11 -60.83)"/><path class="cls-1" d="M254.8,116.93a8.77,8.77,0,0,0,7.51-.89,1.5,1.5,0,1,0-1.52-2.59,6.37,6.37,0,0,1-.72.41l-.18.09.07,0a.92.92,0,0,1-.29.11,7.15,7.15,0,0,1-.79.23l-.41.08-.2,0,.14,0a10,10,0,0,1-1.55,0c-.4,0,.24,0-.06,0l-.41-.08a5.53,5.53,0,0,1-.79-.24,1.52,1.52,0,0,0-1.85,1,1.55,1.55,0,0,0,1.05,1.85Z" transform="translate(-48.11 -60.83)"/><path class="cls-1" d="M256,114.84a2.89,2.89,0,0,0-3.89,1.09,1.52,1.52,0,0,0,1.69,2.21,13.55,13.55,0,0,0,5.51-3c1.34-1.17-.37-3.08-1.82-2.35l-6,3a1.51,1.51,0,0,0,0,2.59,3.44,3.44,0,0,0,4.95-1.23,1.52,1.52,0,0,0-1.29-2.26,7.51,7.51,0,0,0-4.75,1.49,1.52,1.52,0,0,0,.76,2.8,7.47,7.47,0,0,0,4.8-1.51,1.51,1.51,0,0,0-1.16-2.74,6.55,6.55,0,0,0-3.1,1.46l2.12,2.12a5.26,5.26,0,0,0,1.37-2.55,1.52,1.52,0,0,0-1.84-1.85,4,4,0,0,0-2.37,1.89,1.51,1.51,0,0,0,2.36,1.82l1.68-1.42-2.12-2.12L249.79,118c-1.23,1.46.72,3.49,2.12,2.12a22,22,0,0,1,23.41-4.45c1.56.64,2.69-2,1.16-2.74a19.64,19.64,0,0,0-10-1.84,1.5,1.5,0,0,0-.4,2.94l8.53,2.65a1.51,1.51,0,0,0,1.46-2.51,7.25,7.25,0,0,0-5-1.93,1.51,1.51,0,0,0-.4,3,25.77,25.77,0,0,1,5.7,2.48,1.5,1.5,0,0,0,1.52-2.59,28.35,28.35,0,0,0-6.42-2.78l-.4,2.94a4.09,4.09,0,0,1,2.91,1l1.46-2.51-8.53-2.64-.4,2.95A16.62,16.62,0,0,1,275,115.5l1.16-2.74A25,25,0,0,0,249.79,118l2.12,2.12,3.07-3.64a1.5,1.5,0,0,0-2.12-2.12l-1.68,1.42,2.35,1.81a.86.86,0,0,1,.57-.5l-1.84-1.85a2.38,2.38,0,0,1-.6,1.23c-1.35,1.45.64,3.29,2.12,2.12a3.62,3.62,0,0,1,1.78-.69l-1.16-2.74a4.85,4.85,0,0,1-3.28,1.1l.76,2.79a4.91,4.91,0,0,1,3.23-1.08l-1.3-2.25c-.22.41-.49.4-.85.15v2.59l6-3-1.82-2.36a10.27,10.27,0,0,1-4.19,2.18l1.7,2.21-.21,0c1.73.81,3.26-1.77,1.51-2.59Z" transform="translate(-48.11 -60.83)"/><path class="cls-1" d="M278.2,120.55c.3-.09,0,0-.12,0s-.13-.07,0,0,.08.05,0,0l.1.1c-.09-.12-.09-.11,0,0a.53.53,0,0,1-.06-.35l2.51-.66-1.29-1.34a1.5,1.5,0,0,0-2-.12,1.52,1.52,0,0,0-.39,1.94,2.3,2.3,0,0,0,2.67,1.07,2.59,2.59,0,0,0,1.82-2.37,5.59,5.59,0,0,0-2.31-4.45,14.6,14.6,0,0,0-4.45-2.3c-1.87-.66-3.76-1.26-5.63-1.89a1.5,1.5,0,0,0-.8,2.9l4.38,1.46c.57.18,1.14.37,1.7.58a12.5,12.5,0,0,1,1.41.61,11.13,11.13,0,0,1,1.3.78c.08.06.38.33.54.48s.17.18.25.28.2.27.09.1a4.3,4.3,0,0,1,.41.72h0l.06.15s.11.47.07.26c0,.2-.08.11,0,0s.11-.15.2-.2.41,0,.17-.07l.43.11c.29.37.37.44.25.21l-2.36,1.82,1.3,1.34a1.5,1.5,0,0,0,2.5-.66,2.87,2.87,0,0,0-3.55-3.39,1.53,1.53,0,0,0-1.05,1.84,1.51,1.51,0,0,0,1.84,1Z" transform="translate(-48.11 -60.83)"/><path class="cls-1" d="M525.88,227.46l2-.4a1,1,0,0,0,.51-.27,1.13,1.13,0,0,0,.39-.42,1,1,0,0,0,.17-.56,1.08,1.08,0,0,0,0-.59,1.49,1.49,0,0,0-.69-.9l-.36-.15a1.55,1.55,0,0,0-.8,0l-2,.39a1.26,1.26,0,0,0-.51.27,1.18,1.18,0,0,0-.38.42,1.16,1.16,0,0,0-.18.56,1.12,1.12,0,0,0,0,.6,1.51,1.51,0,0,0,.69.9l.35.15a1.55,1.55,0,0,0,.8,0Z" transform="translate(-48.11 -60.83)"/><path class="cls-1" d="M533,226.7l5.53-.63a1.52,1.52,0,0,0,1.48-1.3,1.48,1.48,0,0,0-1.08-1.64,33.92,33.92,0,0,0-16.86,1.5,1.5,1.5,0,0,0,.8,2.89,46.62,46.62,0,0,1,16.48-.94,1.5,1.5,0,0,0,1.5-1.5,1.54,1.54,0,0,0-1.5-1.5,49,49,0,0,0-17.28,1l.8,2.89a30.84,30.84,0,0,1,15.26-1.5l.4-3-5.53.63a1.54,1.54,0,0,0-1.5,1.5,1.51,1.51,0,0,0,1.5,1.5Z" transform="translate(-48.11 -60.83)"/><path class="cls-1" d="M544.41,226.84a16.47,16.47,0,0,0,6.83-5.62,1.48,1.48,0,0,0-.39-1.93,1.51,1.51,0,0,0-2,.12c-1,.85-2,1.67-3,2.47-.09.06-.07.05.05,0l-.2.15-.4.3-.77.57L543,224a1.5,1.5,0,0,0,1.51,2.59,21,21,0,0,0,7-5.78,1.63,1.63,0,0,0,.44-1.06,1.5,1.5,0,0,0-.44-1.06,1.52,1.52,0,0,0-2.12,0,20.52,20.52,0,0,1-3,3.11l-.4.32c-.17.14.29-.21,0,0l-.18.14c-.29.21-.59.42-.89.61A20.44,20.44,0,0,1,543,224l1.51,2.59a61.9,61.9,0,0,0,6.49-5l-2.36-1.82-.16.22s-.18.23,0,.07l-.09.11c-.05.06-.09.12-.14.17q-.32.39-.66.75a16.91,16.91,0,0,1-1.46,1.35s-.14.13-.18.13.22-.16,0,0l-.4.29q-.4.28-.84.54a13.61,13.61,0,0,1-1.82.94,1.5,1.5,0,0,0-.54,2.05,1.56,1.56,0,0,0,2.06.54Z" transform="translate(-48.11 -60.83)"/><path class="cls-1" d="M552.66,214.54l.69-2.29a6.46,6.46,0,0,0,.47-2.11,2.56,2.56,0,0,0-1.61-2.11l-2.07-1.12-8.37-4.52a1.54,1.54,0,0,0-2,.54,1.52,1.52,0,0,0,.53,2l7.39,4,1.78,1,.88.48c.13.06.72.38.72.36a5,5,0,0,1-.2-.52s-.12.43-.14.48l-.28.93-.63,2.09a1.51,1.51,0,0,0,1,1.84,1.53,1.53,0,0,0,1.85-1.05Z" transform="translate(-48.11 -60.83)"/><path class="cls-1" d="M544.89,210.71l.3.19c-.29-.2,0,0,.1.11l.11.13q-.15-.19-.06-.06c0,.07.23.46.09.11l.69-1.69-.25.12c-.35.2.14,0-.08,0a1.29,1.29,0,0,0-.26.08c-.11,0-.08,0,.07,0h-.14c.1,0,.28,0,.09,0a.81.81,0,0,1,.28.17c-.18-.16,0,.07.08.15a1,1,0,0,1,0,.66.71.71,0,0,1-.3.34c.16-.1,0,0-.08,0,.24-.07-.08,0-.09,0s.31,0,.15,0,.11.05.14.05l.33.13c-.15-.06-.07,0,0,0l.55.23a5.62,5.62,0,0,0,5.1-.68,1.55,1.55,0,0,0,.74-1.29,1.49,1.49,0,0,0-.74-1.3l-4.24-1.8-1.15,2.74,5.76,2.12.8-2.89-2.46-.67-1.24-.33-.61-.16-.25-.07a1,1,0,0,1,.67.7v.8l-.11.26-.54.53a1.32,1.32,0,0,1-.89.12l-.67-.39,0,0-.39-.66v-.71a1.5,1.5,0,0,0,2.89.8,1.65,1.65,0,0,0-2.45-1.81,1.74,1.74,0,0,0,.21,3,6.46,6.46,0,0,0,1.31.42l1.23.33,2.46.66a1.5,1.5,0,1,0,.8-2.89l-5.76-2.12A1.5,1.5,0,0,0,546,209l4.23,1.8v-2.59c-.21.15-.43.26-.65.39.26-.15,0,0-.11,0l-.37.11c-.06,0-.46.06-.1,0l-.38,0h-.39c-.32,0,.24.07-.1,0a4.52,4.52,0,0,1-.74-.22l-.4-.16-.32-.13a3.06,3.06,0,0,0-2-.06,2.29,2.29,0,0,0-1,3.76,2.71,2.71,0,0,0,2,.8,4.72,4.72,0,0,0,2-.66,1.51,1.51,0,0,0,.69-1.7,4.32,4.32,0,0,0-1.92-2.27,1.5,1.5,0,1,0-1.51,2.59Z" transform="translate(-48.11 -60.83)"/><path class="cls-1" d="M548.55,218.22l-3.35,2.89a1.5,1.5,0,0,0-.12,2,1.53,1.53,0,0,0,1.94.39,11.77,11.77,0,0,0,5.48-5.66h-2.59c0-.1-.08-.22,0-.05a2.76,2.76,0,0,0,.08.27,1.55,1.55,0,0,0,0,.21c0,.18,0-.3,0,0v.45c0,.35,0-.21,0,0s0,.15,0,.22-.09.33-.14.49,0,0,0,0-.11.22-.13.26-.17.3-.27.45a.59.59,0,0,1-.13.18l.09-.12-.11.13a8.5,8.5,0,0,1-.75.72c.16-.14.08-.06,0,0l-.2.14-.46.3a18.43,18.43,0,0,1-2,1,1.49,1.49,0,0,0-.61,1.87,1.51,1.51,0,0,0,1.77.87,8.84,8.84,0,0,0,6.35-5.75,1.5,1.5,0,0,0-2.5-1.46c-.52.5-1.05,1-1.61,1.45l-.44.35c-.18.14.18-.13,0,0l-.2.15c-.31.23-.62.45-.94.66-.6.4-1.22.77-1.85,1.11-.32.18-.64.34-1,.49l-.46.22-.29.13-.05,0a1.67,1.67,0,0,0-.9.69,1.5,1.5,0,0,0,1.69,2.21,25.56,25.56,0,0,0,8.13-5.36l-2.51-1.46c-.05.13-.09.28-.15.41.19-.38,0,.06-.08.13a7,7,0,0,1-.44.75l-.09.14a1.75,1.75,0,0,1-.28.33,6,6,0,0,1-.62.62,3,3,0,0,1-.33.28c.34-.23-.07,0-.14.09a7,7,0,0,1-.75.44,2.81,2.81,0,0,1-.39.19c.4-.11-.07,0-.15.05a7.39,7.39,0,0,1-.84.23l1.16,2.74a10.81,10.81,0,0,0,4.5-3.21,5.39,5.39,0,0,0,.64-5.5,1.51,1.51,0,0,0-2.59,0,10.63,10.63,0,0,1-.83,1.52l-.26.38-.14.18c.11-.15.12-.16,0,0s-.38.44-.58.65l-.62.59-.36.3c-.23.19.21-.15-.1.08a10.44,10.44,0,0,1-1.54.92l1.82,2.35,3.35-2.89a1.5,1.5,0,0,0,0-2.12,1.54,1.54,0,0,0-2.12,0Z" transform="translate(-48.11 -60.83)"/><path class="cls-1" d="M510.74,210.08a22.33,22.33,0,0,1,3.32-3.2l-2.2-1.7a7.43,7.43,0,0,1-5.51,5l.8,2.89a13.1,13.1,0,0,0,8.68-8.22,1.51,1.51,0,0,0-1.45-1.9,2.73,2.73,0,0,0-2.31,3.78c.76,2.12,3.27,2.19,5.12,1.8a23.07,23.07,0,0,0,11.7-6.69l-2.5-1.46a6.2,6.2,0,0,1-4.69,4.71l.8,2.89a16.23,16.23,0,0,0,4.27-2.55,14.14,14.14,0,0,0,1.87-1.92,5,5,0,0,0,.7-.91c.39-.39.26-.49-.41-.32.13.12.28.24.42.35a8.58,8.58,0,0,0,9.09.8c1.73-.86.21-3.44-1.52-2.59a5.52,5.52,0,0,1-4.22.25c-1.36-.46-2.35-2-3.89-1.75s-2.12,2-3,2.92a12.13,12.13,0,0,1-4.07,2.83c-1.72.73-1.14,3.36.8,2.89a9.18,9.18,0,0,0,6.78-6.8,1.51,1.51,0,0,0-2.51-1.46,20.87,20.87,0,0,1-6.17,4.49,19.74,19.74,0,0,1-3.43,1.23,5.69,5.69,0,0,1-1.78.31,4,4,0,0,0-.54-.11s0,0,0,.06a.46.46,0,0,1-.49.25l-1.45-1.9a9.94,9.94,0,0,1-6.58,6.13,1.5,1.5,0,0,0,.8,2.89,10.44,10.44,0,0,0,7.6-7.13c.36-1.15-1.14-2.51-2.2-1.69a25.72,25.72,0,0,0-3.93,3.66c-1.26,1.46.85,3.59,2.12,2.13Z" transform="translate(-48.11 -60.83)"/><path class="cls-1" d="M490.55,229.65c1-1.26,1.91-2.55,2.91-3.78,0-.05.29-.39.17-.25s-.18,0-.15,0,.66.36.78.44a11.76,11.76,0,0,0,2,1,10.73,10.73,0,0,0,8.14-.31c1.54-.67.41-3.4-1.16-2.74a12.42,12.42,0,0,1-9.61.07c-1.37-.56-2.57,1.58-1.46,2.51a6.61,6.61,0,0,0,8,.44L498.12,225c-.78,1.25-2.29.6-2.48-.72l-2.21,1.7a10.43,10.43,0,0,0,7.84,1.5l-.8-2.89q-3.83,1.18-7.7,2.23a1.51,1.51,0,0,0,.4,3l2.94-.08-.4-2.95-1.9.49a1.5,1.5,0,0,0,.79,2.89l1.91-.48a1.51,1.51,0,0,0-.4-2.95l-2.94.08.4,2.94c2.58-.69,5.15-1.44,7.7-2.23a1.5,1.5,0,0,0-.8-2.89,7.41,7.41,0,0,1-5.52-1.2,1.48,1.48,0,0,0-1.67.12,1.53,1.53,0,0,0-.53,1.57,4.33,4.33,0,0,0,3.36,3.5,4.44,4.44,0,0,0,4.6-2.06c.75-1.22-.81-3-2.06-2.06a3.6,3.6,0,0,1-4.37,0l-1.46,2.5a14.87,14.87,0,0,0,11.2-.06l-1.16-2.75a7.82,7.82,0,0,1-7.29-.8c-1.6-1-3.23-.94-4.42.6q-1.61,2.07-3.19,4.16a1.5,1.5,0,0,0,.53,2.05,1.54,1.54,0,0,0,2.06-.54Z" transform="translate(-48.11 -60.83)"/><path class="cls-1" d="M418.67,252a1.5,1.5,0,0,0,0-3,1.5,1.5,0,0,0,0,3Z" transform="translate(-48.11 -60.83)"/><path class="cls-1" d="M417.85,248.78c-4.41-1.38-8.89,0-13.14,1.29l-14.14,4.19c-1.84.55-1.06,3.45.8,2.9l13.18-3.91c4-1.18,8.33-2.88,12.5-1.58,1.85.58,2.64-2.31.8-2.89Z" transform="translate(-48.11 -60.83)"/><path class="cls-1" d="M476.05,212.83a40,40,0,0,1,10.66-2.08c3.18,0,6.51.24,9.35-1.5a22.1,22.1,0,0,0,3.62-3.08l4-3.9,8-7.8c1.39-1.35-.73-3.47-2.12-2.13l-7.68,7.47-3.67,3.56a22.77,22.77,0,0,1-3.72,3.29c-2.71,1.66-6.16,1-9.17,1.14a46.19,46.19,0,0,0-10.12,2.14c-1.85.55-1.06,3.44.8,2.89Z" transform="translate(-48.11 -60.83)"/><path class="cls-1" d="M492.09,212.65c.16.24.09,0,0,.19a.93.93,0,0,1-.57.39,11.43,11.43,0,0,1-2.8.35l-6.53.56a1.51,1.51,0,0,0-.76,2.79c4.11,2.88,9.33,1.34,13.33-.89,1.84-1,4.3-2.37,4.13-4.83-.16-2.26-2.37-3.34-4.29-3.87a1.51,1.51,0,0,0-.8,2.9,5.18,5.18,0,0,1,1.69.68c.3.21.52.36.36.7s-.89.83-1.32,1.09c-.81.49-1.63.95-2.48,1.37-2.83,1.41-6.33,2.21-9.11.26l-.75,2.8c2.91-.25,5.86-.41,8.76-.76a4.74,4.74,0,0,0,3.56-1.78,3.1,3.1,0,0,0,.17-3.46c-1.05-1.62-3.65-.11-2.6,1.51Z" transform="translate(-48.11 -60.83)"/><path class="cls-1" d="M424.79,172.13a21.18,21.18,0,0,0,17.1,3.76c1.66-.34,1.28-3-.4-2.94a54.44,54.44,0,0,1-10.12-.6c-2.41-.4-5.25-1-6.79-3.14a1.51,1.51,0,0,0-2.79.76,12.78,12.78,0,0,1-3.28,8.43c-1.29,1.43.82,3.56,2.12,2.12A16,16,0,0,0,424.79,170l-2.8.75c1.92,2.61,4.84,3.82,7.94,4.41a54.65,54.65,0,0,0,11.56.82l-.4-2.95a18.33,18.33,0,0,1-14.79-3.46,1.5,1.5,0,0,0-2.05.54,1.53,1.53,0,0,0,.54,2Z" transform="translate(-48.11 -60.83)"/><path class="cls-1" d="M448,175.13c1.35.44,3.23,1.46,4.67,1.17s1.75-1.45,1.9-2.66a3.69,3.69,0,0,1,4.46-3.27c1.3.36,2.37,1,3.77,1a8.74,8.74,0,0,0,4.05-1.1c2.85-1.47,5.35-3.77,7.89-5.71,1.52-1.15,0-3.76-1.51-2.59a71.39,71.39,0,0,1-7.34,5.4,5.31,5.31,0,0,1-3.89.89c-1.22-.31-2.24-1-3.53-1a6.8,6.8,0,0,0-5.66,2.79,6.39,6.39,0,0,0-1.21,3.13,6.18,6.18,0,0,0-.08.66l.56-.54-.7-.23-2.58-.83c-1.84-.6-2.63,2.3-.8,2.89Z" transform="translate(-48.11 -60.83)"/><path class="cls-1" d="M364,283q-1.14,13.42-3.16,26.75c-1.32,8.62-3.77,17.48-2.49,26.24.28,1.9,3.17,1.1,2.89-.8a42.75,42.75,0,0,1,.59-13.11c.7-4.33,1.47-8.65,2.12-13q1.93-13,3-26.1c.17-1.92-2.83-1.91-3,0Z" transform="translate(-48.11 -60.83)"/><path class="cls-1" d="M370.12,271.87a23.08,23.08,0,0,0,2.52-6.3,1.5,1.5,0,0,0-1-1.84,1.53,1.53,0,0,0-1.85,1,22.21,22.21,0,0,1-.94,3,3.68,3.68,0,0,1-.15.35c.19-.38,0,.06-.06.13-.1.23-.2.46-.31.68-.24.48-.49.95-.76,1.41a1.52,1.52,0,0,0,.54,2.06,1.54,1.54,0,0,0,2.05-.54Z" transform="translate(-48.11 -60.83)"/><path class="cls-1" d="M367.71,271.87a50.12,50.12,0,0,0-2.92,14.68c-.09,1.93,2.91,1.92,3,0a47.41,47.41,0,0,1,2.81-13.88,1.5,1.5,0,0,0-1.05-1.84,1.52,1.52,0,0,0-1.84,1Z" transform="translate(-48.11 -60.83)"/><path class="cls-1" d="M356.58,265.18a16.08,16.08,0,0,1-.13,1.83l.05-.4a14.39,14.39,0,0,1-.88,3.35,1.47,1.47,0,0,0,.15,1.16,1.52,1.52,0,0,0,.9.69,1.49,1.49,0,0,0,1.15-.15,1.76,1.76,0,0,0,.69-.9,15.67,15.67,0,0,0,1.07-5.58,1.5,1.5,0,0,0-3,0Z" transform="translate(-48.11 -60.83)"/><path class="cls-1" d="M359.28,249.74a88.45,88.45,0,0,1-2,19.73c-.42,1.88,2.47,2.68,2.89.79a91.89,91.89,0,0,0,2.16-20.52,1.5,1.5,0,0,0-3,0Z" transform="translate(-48.11 -60.83)"/><path class="cls-1" d="M370.51,238.69l3.27,8a1.53,1.53,0,0,0,2.74.36l6.51-8.93a1.52,1.52,0,0,0-.54-2.06,1.54,1.54,0,0,0-2.05.54l-6.51,8.93,2.74.36-3.27-8a1.56,1.56,0,0,0-1.85-1,1.51,1.51,0,0,0-1,1.85Z" transform="translate(-48.11 -60.83)"/><text class="cls-2" transform="translate(2.88 222.64) scale(1.27 1)"><tspan class="cls-3">F</tspan><tspan x="28.09" y="0">i</tspan><tspan class="cls-4" x="43.57" y="0">sc</tspan><tspan x="80.45" y="0">he</tspan><tspan class="cls-3" x="129.21" y="0">r</tspan><tspan x="0" y="61.73" xml:space="preserve">   &amp; Lo</tspan><tspan class="cls-4" x="136" y="61.73">c</tspan><tspan class="cls-5" x="155.96" y="61.73">k</tspan><tspan x="181.26" y="61.73">e</tspan></text><text class="cls-6" transform="matrix(1.09, 0, 0, 1, 140.79, 357.76)"><tspan class="cls-7">W</tspan><tspan class="cls-8" x="40.57" y="0">e</tspan><tspan x="59.48" y="0">b Design</tspan></text></svg>