<svg xmlns="http://www.w3.org/2000/svg" width="216" height="216" viewBox="0 0 216 216">
  <defs>
    <style>
      .cls-1 {
        fill: #778ffb;
        stroke: #000;
        stroke-width: 1px;
        fill-rule: evenodd;
      }

      .cls-2 {
        font-size: 30px;
      }

      .cls-2, .cls-3 {
        fill: #233c67;
        font-family: "Bembo Book MT Pro";
        font-weight: 700;
      }

      .cls-3 {
        font-size: 26px;
      }
    </style>
  </defs>
  <path id="Cedar_Tree_1" data-name="Cedar Tree 1" class="cls-1" d="M94.5,22.4v0.758H94.308v0.19a6.737,6.737,0,0,0-4.358.569c-0.213.378-.8,0.817-0.947,1.137-0.358.8,0.173,1.2-.379,1.706a1.967,1.967,0,0,1-1.137.379,2.454,2.454,0,0,0-2.652-1.517v0.758l-1.895.379c-1.147-.206-1.842-0.887-3.41-0.948-0.788,1.277-2.715.988-3.41,2.464-0.134.293-.024,0.026,0,0.569,0.976,0.154,1.43.2,1.516,1.326-0.67,1.022.532,2.091,1.705,2.084,1.025,0.842,3.578-.1,4.926.758a1.643,1.643,0,0,1,.189.948,0.681,0.681,0,0,0-.189.379c-1.467.463-3.613,0.755-4.736,1.516a1.637,1.637,0,0,0-.189.948c0.821,0.6.937,1.372,2.273,1.516a0.987,0.987,0,0,1,.947,0c1.082,2.795.072,2.627,4.168,2.464,1.153-1.009,3.659-.27,4.926-0.379l0.189,0.568c0.056,0.142.105,0.673,0.19,1.137l1.895,0.568c0.8,0.507,1.723,1.765,2.652,2.085h0.189l4.357-.19a2.684,2.684,0,0,0,1.7.379c0.7-.254.764-0.833,1.895-0.948a8.53,8.53,0,0,0,1.137,1.137h0.758l0.189,0.948,1.326,1.137H108.9a6.853,6.853,0,0,0,0-3.033c-0.294-.82-1.193-1.4-1.516-2.274,0.958-.5,1.211-1.3,2.463-1.516,1.808,1.828,5.464,2.318,7.957,3.411a25.145,25.145,0,0,1,4.737,2.843l1.7,1.895c1.834,1.254,3.157,1.71,4.736,3.222l-0.189.568c-1.156.454-2.785,0.7-3.6,1.516-0.337.338-.135,1.07-0.568,1.327-0.335.2-.445,0.137-0.569,0a0.685,0.685,0,0,1-.189-0.379,1.438,1.438,0,0,0,.758-0.948,3.437,3.437,0,0,0-.947-0.569v0.19c-0.891.876-.39,1.172-0.948,2.275-0.534,1.056-4.672,2.8-6.441,2.843a2.276,2.276,0,0,0,0,1.516,1.37,1.37,0,0,0,.947,1.137c0.553,0.325,2.54-.054,3.6.379a14.483,14.483,0,0,1,1.137,1.137l1.894,0.189c0.2,0.058.793,0.535,0.947,0.569,0.4,0.089,1.082-.47,1.7-0.19,0.516,0.232.635,0.883,1.326,1.137a0.744,0.744,0,0,1,.569-0.758c0.5,0.448,1.192.492,1.516,1.137,0.447,0.529.972,7.439,0.378,9.1-0.394,1.1-1.992,1.306-1.515,3.411,1.017,4.491,1.105,14.317-.379,18.763-0.362,1.083-1.419,1.8-1.7,2.843l0.189,2.274q-0.284,3.22-.568,6.444a250.9,250.9,0,0,0-4.926,25.965h7.389a0.917,0.917,0,0,0-.19-0.569c-0.519-.408-0.735-0.144-0.947-0.948,0.835-.977.022-1.508,0.379-2.843,0.128-.478.632-1.176,0.758-1.705a1.929,1.929,0,0,0-.19-0.948,7.215,7.215,0,0,1,.379-1.7c0.2-.882-0.441-1.073-0.379-1.706a29.074,29.074,0,0,1,1.327-4.359q-0.1-1.326-.19-2.654c0.392-1.3.526-3.008,0.947-4.359v-1.9c0.364-1.259,1.374-2.422,1.706-3.79q-0.1-1.328-.19-2.654c0.585-2.266,1.877-5.73,4.547-5.875,0.366,0.4,3.761.277,4.926,0a6.934,6.934,0,0,0,2.084-.568,2.285,2.285,0,0,1,.568-0.758,21.389,21.389,0,0,1,3.032,0,23.719,23.719,0,0,0,2.652-.758l4.736-.569q0.094-.284.19-0.568h-0.19c-0.245-.467.081-0.128-0.379-0.379-0.634-.556-2.674-0.512-3.6-0.189-1.956.683-4.469,1.372-6.442,1.895-1.892.5-3.658-.412-5.683-0.379a2.97,2.97,0,0,1-.19-0.948c2.482-2,3.091-6.06,4.926-8.718a22.081,22.081,0,0,1,7.01-5.117c1.479-.451,3.493.586,4.357,0.947,2.708,1.134,5.164,1.816,7.957,2.843a0.538,0.538,0,0,1-.189.19,4.049,4.049,0,0,1-1.9.19c-0.74-.756-3.139-0.685-4.547-0.379a1.023,1.023,0,0,1-.568.758c-0.522.287-1.143-.138-1.705,0.19-0.25.257-.3,0.917-0.568,1.137-1.048.849-2.129,0.039-2.463,1.706,0.648,0.5.5,0.81,0.379,1.706,0.718-.106.967-0.484,1.515-0.569,0.608,0.291,1.215.966,2.274,0.758,0.66-.13,1.751-0.841,2.652-0.569,1.268,0.383.688,1.273,2.842,1.327a1.621,1.621,0,0,1,1.705-.948,0.682,0.682,0,0,0,.379.19v0.379h-0.19c-0.476,1.349-2.135,1.041-3.41,1.517l-0.189,1.137c6.092,0.72,6.047-5.632,10.041-6.254v0.19h-0.19a3.684,3.684,0,0,1-.757.379v0.568c1.372-.1,2.55-1.5,3.789-1.137q0.189,0.284.379,0.569l2.462,0.19V87.025h-1.136c-0.063-.126-0.126-0.252-0.19-0.379a2.007,2.007,0,0,1,.948-0.379c0.964,1.24,3.238-.657,5.494-0.19,3.684,0.764,6.763-1.072,9.473-1.9l5.683-.189c0.625-.1.413-0.728,1.137-0.569a2.917,2.917,0,0,0,1.326.569c-0.011-.551-0.182-0.263,0-0.569a1.282,1.282,0,0,1,.758-0.189,36.7,36.7,0,0,0,4.926.569c0.66-.2,1.761-1.832,2.463-1.327a6.838,6.838,0,0,1,.189.948c0.727,0.473,2.885.215,3.979,0.19a2.266,2.266,0,0,1,1.136-.569,6.88,6.88,0,0,1,.19-1.137c0.323-.632,1.188-0.562,1.516-1.326-1.217-.534-1.225-1.223-1.137-3.033a7.891,7.891,0,0,0,.947-0.758l-0.189-.569c-0.948-.589-0.663-1.28-2.274-1.326v0.189H209.5a4.058,4.058,0,0,1-.569,3.032H208.36c0.208-1.9.353-3.048-1.137-4.169-1.453-1.051-2.766-.183-4.736-0.19a1.629,1.629,0,0,0-1.137-1.327c-1.234,2.692-4.079,1.839-7.01,1.706v1.326a2.644,2.644,0,0,0-2.084,1.706c-1.035-.226-3.635-0.415-4.546.19a0.96,0.96,0,0,0-.19.568,0.956,0.956,0,0,1,.758,1.137c-1,.617-2.6.6-4.358,0.569-0.146-.13-0.423-0.249-0.568-0.38a4.974,4.974,0,0,1-.947-2.085h0.189V76.98h0.758a0.918,0.918,0,0,1,.189-0.569,0.689,0.689,0,0,1,.379-0.19c0.928-.612,2.854.107,3.979,0.19v-0.19h0.189a2.453,2.453,0,0,1,.19-1.326c0.964-.994,4.234-2.552,4.736-3.411-0.235-.3-0.121-0.1,0-0.379a1.28,1.28,0,0,1,.758-0.19,1.58,1.58,0,0,0,1.137.569c1.093-1.668,3.176-1.283,4.168-2.654a3.842,3.842,0,0,0-1.7-.568c-1.322,1.158-5.726.2-6.252,2.085a0.917,0.917,0,0,1,.757.948h-0.189v0.19h-0.379a15.151,15.151,0,0,0-2.463-1.9c-0.316.408-.534,0.583-0.947,0.379-0.7-.291-0.306-0.563-0.758-0.948-0.645-.547-1.253.238-2.084,0a4.781,4.781,0,0,0-1.516-.568c-0.056.059-1.136,1.327-1.136,1.327-0.649.362-1.439-.115-1.9,0.379-0.593.642,0.17,0.871-.947,1.137a3.561,3.561,0,0,0-1.7-.379,2.186,2.186,0,0,0-.379,1.327c0.25,0.329.327,0.3,0.189,0.568a1.636,1.636,0,0,1-.947.19,0.683,0.683,0,0,0-.379-0.19,3.863,3.863,0,0,0-1.137-1.706c-0.512-.264-1.356.284-2.273,0-0.161-.05-0.6-0.515-0.758-0.568-2.03-.678-3.173.533-4.926,0.758v0.568A3.259,3.259,0,0,1,168.2,73l1.136-.19v0.569c-0.714.579-.562,1.067-1.894,1.137-0.948.581-2.584,0.013-3.6-.189a5.669,5.669,0,0,1-3.221,2.084c-1.057-.741-3.521-0.193-4.926,0v0.758c0.763,0.361,1.658.762,2.464,1.137a0.653,0.653,0,0,1-.19.379c-0.579.632-.989,1.583-2.084,1.706a0.568,0.568,0,0,1-.569.189V80.392c-0.88-.211-1.568-0.548-2.273-0.758-1.053-.315-1.977.218-2.652-0.19l-0.379-.19V77.927c0.874-.955,1.008-2.449,1.7-3.6,1.3-2.152,3.3-4.494,4.168-7.013,0.366-1.061-.244-2.468-0.379-3.032-0.29-1.216.358-2.974,0.568-3.98a3.491,3.491,0,0,1,1.137-.19,4.869,4.869,0,0,0,3.031,1.517c0.223-.173,6.45-1.182,6.631-1.137a8.42,8.42,0,0,0,2.274.758c0.09-.218.269-1.725,0.379-1.9s0.587-.318.758-0.568a10.07,10.07,0,0,0,5.683.948,3.463,3.463,0,0,0,.19-1.137l-0.569-.19a3.364,3.364,0,0,0-1.326.19V58.217a2.9,2.9,0,0,1,1.7-.379,1.235,1.235,0,0,0,1.137,0l0.189-.569a1.034,1.034,0,0,1-.568-0.758c0.955,0.04,1.391.062,1.7-.569-0.822-.386-2.23-0.468-2.463-1.516l0.569-.19a0.963,0.963,0,0,1,.568-0.19,7.253,7.253,0,0,0,3.789,2.464c0.686-.983,1.974-1.431,3.031-2.084,0.4-.245.452-0.948,0.948-1.138h1.326c0.351-.116.923-0.636,1.326-0.758h1.137c0.716-.279.534-0.921,1.515-1.137l-0.189,1.327a2.667,2.667,0,0,0,.758.19c0.318-.188.434-0.02,0.758-0.19,1-.712,1.879-2.159,3.22-2.464a1.641,1.641,0,0,0,.947.189,3.458,3.458,0,0,0,.19-1.136c-0.961-.333-1.346-1.1-2.463-1.327a0.76,0.76,0,0,1-.758.379,8.539,8.539,0,0,0-1.136-1.517c-0.1,1.145-.549,1.109-0.758,2.085h-0.758a0.652,0.652,0,0,0-.19-0.379,2.865,2.865,0,0,0,.19-1.326,5.368,5.368,0,0,0-1.705-.948c0.139,0.8-.289,3.017-1.137,2.653a4.915,4.915,0,0,1-1.515-.948,0.644,0.644,0,0,1,.189-0.379c0.3-.828,1.195-0.96,2.084-1.137a3.827,3.827,0,0,1,.189-1.327c1.513-.149,2.076.251,3.789,0.19a4.061,4.061,0,0,0,.19-1.327c0.362-.685-0.67-2.2-0.947-3.032a2.419,2.419,0,0,0,1.136-1.327c-0.192-.111-0.435-0.518-0.568-0.568-0.449-.173-0.782.366-1.326,0-0.64-.429-0.388-1.486-1.137-1.9l-0.189.569-1.9-.19a34.309,34.309,0,0,1-4.547-1.137,0.757,0.757,0,0,0,.379-0.758h-0.189v-0.19c-0.684.161-1.5,0.406-2.274,0.569-0.011,1.344-.513,1.732-1.894,1.706a0.965,0.965,0,0,0-.569-0.19,1.688,1.688,0,0,1-1.7,1.706l-0.189-.568h-0.379l-0.19.379c-0.838.184-.949-0.468-1.326-0.568H173.69c-0.466.1-.581,0.8-1.516,0.568-1.13-.274-2.213-1.029-3.41-1.137-0.867,1.276-6.559.892-8.715,0.758v0.189H159.86c-0.054,1.573-.707,1.678-0.758,3.411a1.526,1.526,0,0,1,.758,1.516,2.97,2.97,0,0,1-.948.19,1.442,1.442,0,0,0-1.136-1.137c-1.084.577-4.1-1.04-5.5-1.516l-3.221.189a22.655,22.655,0,0,0-3.41-.568,2.25,2.25,0,0,0-.758.758,3.518,3.518,0,0,0-.189,1.705c0.96,0.381,2.1.48,2.463,1.517a2.762,2.762,0,0,1,.379,1.516,2.027,2.027,0,0,1-1.326.568c-0.34.179-2.762,0.394-3.41,0.569l-1.516-.19a4.769,4.769,0,0,1-.758.948c-1.08.4-2.339,0.2-3.221,0.758-0.427.268-1.06,1.554-1.326,1.705-1.317.749-1.824-.774-1.894,1.706a2.447,2.447,0,0,1,.947,1.517,0.917,0.917,0,0,0-.569.19,1.278,1.278,0,0,0-.189.758c0.408,0.663.086,1.606,0.379,2.463,0.262,0.77.783,1.665,1.137,2.653,0.867,0.322,2.824,1.205,3.41.948,0.881-.221,1.255-0.871,1.894-1.137l3.6-.19a11.733,11.733,0,0,0,1.7-.758l0.379-.758,3.6,0.189c0.69-.221,1.275-1.095,1.894-1.327,1.111-.415,2.531.324,3.031-0.379a2.025,2.025,0,0,1-1.515-1.895l-1.326-.189a0.917,0.917,0,0,1-.19.568,6.218,6.218,0,0,1-1.705,1.516l-0.189-1.516c0.377-.18,2.273-1.327,2.273-1.327h0.19a2.084,2.084,0,0,0-.758-1.327c-0.5-.316-1.378.042-2.084-0.19a11.1,11.1,0,0,0-1.137-.758c-0.21-.045-3.167.37-4.168,0.379a2.949,2.949,0,0,1-.189-0.948c-0.048-.183-0.149-0.072,0-0.19,0.248-.248.674-0.136,0.947-0.379,0.768-.684-0.018-1.188,1.516-1.326,0.386,0.713.878,0.843,1.136,1.705h0.19c0.063-.913.04-0.877,0.947-0.948v0.379c0.176,0.3-.184.588,0.379,0.948a2.5,2.5,0,0,0,1.326.189V51.2h0.19a0.89,0.89,0,0,1,0-.948,1.28,1.28,0,0,1,.947-0.379c0.562,0.667,1.039.317,1.894,0.758,1.662,0.858,2.973,3.819,3.032,6.254a9.414,9.414,0,0,0-1.516.568,35.756,35.756,0,0,0-1.9,4.36c-0.489,1.829.691,3.255-1.515,3.411-1.91-1.2-5.533.937-7.768,0-0.744-.312-0.777-0.877-2.084-0.948v0.379a1.039,1.039,0,0,1,.569,1.137h-2.084a8.29,8.29,0,0,1-1.327,1.9,0.536,0.536,0,0,1-.189-0.19,1.86,1.86,0,0,1-1.326-1.137,2.091,2.091,0,0,1,.189-2.464,0.534,0.534,0,0,1-.189-0.19l-2.274-.189a5.5,5.5,0,0,0-.189,1.706c0.289,0.36.276,0.936,0.568,1.327,0.243,0.325.906,0.4,1.137,0.758,0.423,0.654.09,1.423,0.379,2.274,0.128,0.377,1.063,1.159.758,1.327a17.852,17.852,0,0,1-1.9.758c0.972,2.054,3.019,2.29,5.684,1.706L142.24,73c-0.667-.383-2.558-0.833-2.842-1.516a0.541,0.541,0,0,0,.19-0.19,5.672,5.672,0,0,0,1.894-.568h2.463c0.142-.047.47-0.53,0.569-0.569,0.855-.338,2.445.179,3.031,0.19,0.957,0.017,1.668-.71,3.41-0.38v0.38a1.277,1.277,0,0,1,.19.758,18.16,18.16,0,0,0-3.221,4.927c-0.46,1.06-.5,2.172-1.137,3.032l-5.115,3.6c-1.777,2.156-2.274,5.338-3.789,7.77-1,1.6-2.693,2.3-3.979,3.6h-0.758c-0.012-3.2,1.21-5.5,1.326-8.338,0.07-1.7-.621-3.339-0.189-5.306,0.3-1.368.822-3.983,0.379-5.686-0.118-.454-0.654-0.985-0.758-1.326a9.514,9.514,0,0,1,.379-3.222,11.172,11.172,0,0,0-.189-4.549l0.189-2.653a8.054,8.054,0,0,1-.947-0.948,2.647,2.647,0,0,1,.379-1.327q-0.191-1.895-.379-3.791c-0.277-.725-0.81-0.615-0.947-1.705,1.469-1.041-.406-2.982-0.758-3.98,0.86-.058.9-0.086,1.136-0.758,0.6-1.028-.561-2.7-0.189-4.359q0.283-1.043.568-2.085a6.481,6.481,0,0,0,2.842-.379V42.866l-2.084.19q0.095-.758.19-1.517a1.148,1.148,0,0,1-.379-0.379,2.987,2.987,0,0,1-.948.19V40.781h0.948a3,3,0,0,0,.189-0.948,0.683,0.683,0,0,1-.189-0.379,4.912,4.912,0,0,1-1.705-1.137,0.647,0.647,0,0,0-.379.19,3.545,3.545,0,0,0-.569.948l-1.326-.758a4.121,4.121,0,0,1-.189-1.517,5.723,5.723,0,0,1,2.463-.19l0.189-2.085a3.465,3.465,0,0,0-1.137-.19c-0.14-.168-0.962.5-1.326,0.758a7.555,7.555,0,0,1-1.137-.569c-0.3.481-.5,0.748-0.947,0.569-0.64-.236-2.09-1.856-2.463-1.516a7.962,7.962,0,0,0-1.515.758c-0.785.962-.543,2.247-1.705,2.843-1.019.9-3.025-.329-4.169-0.569a3.719,3.719,0,0,0-.568,1.327c1.369,1.293,2.255,3.24,3.41,4.738,1.749,2.268,5.813,4.1,9.094,4.928,0.292,1.469,1.095,1.9,1.516,3.032h-0.19a0.963,0.963,0,0,1-.568.19c-0.942-.737-2.024-1.023-3.031-1.706l-0.758-.948-1.516-.379c-0.315-.213-0.294-0.938-0.568-1.137h-0.947a8.658,8.658,0,0,1-1.9-1.137l-2.842-3.032q-0.283-.948-0.568-1.9c-0.994-1.531-1.844-.618-1.516-3.411a6.76,6.76,0,0,1-1.7.19c-0.745-1.067-2.17-1.71-2.842-2.843-0.425-.716.107-1.91-0.189-2.843-0.613-1.931-2.431-3.523-2.653-5.686a7.07,7.07,0,0,0,.758-1.895h0.19c-0.057,1.386-.186,2.995.568,3.6a2.615,2.615,0,0,0,.947.19c-0.364,1.025.938,4.531,2.084,4.738a3.271,3.271,0,0,1,1.137-.379L114.959,31.3l0.189-.19a9.656,9.656,0,0,0,.947-0.379,16.384,16.384,0,0,1,1.137-1.895h0.758a6.475,6.475,0,0,1,1.326,1.326h0.189v-0.19c0.621-.8.352-2.939,0.379-4.17a9.68,9.68,0,0,0-1.7.568V26a2.234,2.234,0,0,1-.379-1.516,1.426,1.426,0,0,0,.948,0q-0.191-.473-0.379-0.947a1.02,1.02,0,0,1-.948,0,2.06,2.06,0,0,1-.189-1.137c1.089-.511,1.31-0.776,2.652-0.379,1.453-.623,1.545-1.873,3.79-1.9a1.166,1.166,0,0,0,.378.379V21.45a19.457,19.457,0,0,0,3.6-.19,3.134,3.134,0,0,0,.379-1.516,1.872,1.872,0,0,1-.758-0.948c1.034-.11,1.164-0.344,1.137-1.516-1.246-.848-1.6-2.3-3.41-2.653-0.241.675-3.031,1.895-3.031,1.895a23.273,23.273,0,0,1-2.842-3.222c-2.373,1.577-3.646,1.231-6.442.758-0.592,1.263-.956.057-1.516-0.19h-1.7c-0.806-.22-1.521-1.016-2.273-1.137-0.611-.1-0.719.563-1.516,0.379a10.023,10.023,0,0,0-2.273-.758,2.788,2.788,0,0,1-1.327,1.137,2.4,2.4,0,0,0-2.462-.379c-0.575.263-.623,0.921-1.137,1.137H97.15c-0.717.353-1.276,1.684-2.084,2.085-1,.5-1.638-0.113-2.084.948a2.052,2.052,0,0,0-.189,1.136,19.148,19.148,0,0,1,2.084.569c0.527,0.344.307,1.367,0.758,1.706l1.326,0.19a2.44,2.44,0,0,1,.379.758A8.123,8.123,0,0,0,99.8,23.345a0.649,0.649,0,0,1-.189.379,1.279,1.279,0,0,1-.947.379A4.82,4.82,0,0,0,94.5,22.4Zm28.608,0.948h0.758l0.189-.569a1.358,1.358,0,0,1-.378-0.758h-0.19v0.19A1.968,1.968,0,0,0,123.105,23.345Zm-12.5,0c-0.157.615,0.093,0.289-.379,0.569V23.345H110.6Zm-8.715,1.137-1.137-.189-0.189-.569h0.189V23.535l1.137,0.379v0.568Zm5.873,0.568a6.267,6.267,0,0,1,1.137,1.516h-0.19a3.915,3.915,0,0,1-1.326-1.516h0.379Zm5.684,3.791-0.189.568h-0.379V29.031h0.189A0.683,0.683,0,0,1,113.443,28.842Zm-24.25.189,1.137,0.948v0.19H90.14c-0.293.366-.465,0.528-0.758,0.379A0.9,0.9,0,0,1,89,29.6a0.685,0.685,0,0,1-.189-0.379ZM91.656,33.2v0.569c-1.084-.169-1.636-0.932-2.463-1.137l-3.221.379-0.189-.568c0.544-.357,2.282-1.261,2.842-0.948A4.395,4.395,0,0,0,91.656,33.2Zm7.389-.379c1.66-.069,1.869-1.031,3.221-1.327,0.626,0.513,1.872.138,2.653,0.568a5.726,5.726,0,0,1,2.273,3.6,0.683,0.683,0,0,0-.189.379,22.088,22.088,0,0,1-6.821,1.326c-0.451-.688-1.074-1.164-1.516-1.9H98.476v0.19l-0.379.19a2.848,2.848,0,0,1,.379.758H98.1v-0.19c-1.716-1.96-3.173-1.381-5.684-2.274l-0.189-.569c1.464-.143,1.092-0.945,2.463-1.137,0.444,0.5,2.96,3.047,3.789,2.274A3.1,3.1,0,0,0,99.044,32.821Zm17.809,0.569a23.3,23.3,0,0,0-2.273.758v0.379a1.664,1.664,0,0,1,1.7.379A7.723,7.723,0,0,0,116.853,33.39Zm-8.715.569c0.063,0.19.127,0.379,0.19,0.568h-0.569l-0.189-.568h0.568Zm-19.7.19a16.322,16.322,0,0,0,2.273,1.706,0.647,0.647,0,0,1-.189.379,1.631,1.631,0,0,1-.947.19c-0.925-1.174-1.456-.18-1.895-2.274h0.758Zm23.682,1.327c0.6,0.554.89,0.316,0.947,1.516h-0.189c-1.142-.775-2.058.528-2.653,0.948a0.651,0.651,0,0,0,.19.379c0.277,0.478.083,0.293,0.757,0.379a1.367,1.367,0,0,1,1.516-.19,11.453,11.453,0,0,1,.758,2.464,2.972,2.972,0,0,1-.947.19c-0.8-.837-1.361-0.551-2.274-1.137-0.242-.356-0.142-1.124-0.379-1.516-0.579-.96-1.283-0.334-1.326-2.085a4.824,4.824,0,0,1,.568-0.758C109.477,35.533,111.248,35.687,112.117,35.474Zm-19.135.758a4.239,4.239,0,0,1,.758,1.137H93.55v0.19a0.65,0.65,0,0,1-.379-0.19,2.262,2.262,0,0,1-.568-1.137h0.379Zm21.787,1.9c0.385,0.587.688,1.259,1.137,1.9,0.572,0.811,1.435.45,1.7,1.706a4.083,4.083,0,0,1-1.326.19,6.907,6.907,0,0,1-2.274-3.791h0.758Zm60.815,1.516V40.4a0.536,0.536,0,0,0-.189.189h-0.379V40.023ZM97.529,42.866v0.568a0.912,0.912,0,0,1-.568-0.189,0.687,0.687,0,0,1-.189-0.379h0.758Zm61,3.032a1.575,1.575,0,0,1,.379.569,1.278,1.278,0,0,1,.19.758,4.819,4.819,0,0,1-.947.948c-0.963.678-6.2,1.552-7.01,0.568a4.606,4.606,0,0,1-.569-1.706,1.978,1.978,0,0,1,1.137-.379c1.347-.84,2.948.549,4.357,0.189C156.967,46.617,157.309,46,158.533,45.9Zm4.737,1.137a1.6,1.6,0,0,1,.379.569H163.08l-0.189-.379ZM143.377,49.5l0.189-.948a3.428,3.428,0,0,1,.948-0.568v0.19a0.972,0.972,0,0,1,.189.568A2.647,2.647,0,0,1,143.377,49.5Zm42.249-.948c0.062,0.263-.269.275-0.379,0.379C185.114,48.729,185.573,48.608,185.626,48.552Zm-0.758.569v0.947h-0.19v0.19H184.3V49.689A6.665,6.665,0,0,1,184.868,49.12Zm-27.092,1.326-1.137.19v0.379a2.8,2.8,0,0,0,1.326.569,1.62,1.62,0,0,1,1.7-.948c0.685,0.425,1.834.3,2.463,0.758a1.644,1.644,0,0,1,.189.948c-0.784.68-.568,1.681-1.705,2.085a21.935,21.935,0,0,1-3.41.19c-0.659-1.427-1.8-2.676-2.084-4.36A4.723,4.723,0,0,1,157.4,49.5a1.157,1.157,0,0,0,.38.379v0.569Zm33.154-.379c-0.157.615,0.093,0.29-.379,0.568V50.257Zm-48.69,0v0.379h-0.568V50.068h0.568Zm21.977,1.516a3.754,3.754,0,0,1-1.326,2.654,0.652,0.652,0,0,1-.379-0.19,0.685,0.685,0,0,1-.19-0.379,5.3,5.3,0,0,0,1.327-2.085h0.568Zm1.895,2.274v0.759a6.476,6.476,0,0,1-1.516-.19,2.952,2.952,0,0,1-.189-0.948A0.684,0.684,0,0,0,164.6,53.1a11,11,0,0,1,6.441-.948,7.725,7.725,0,0,1,.758,1.517,2.984,2.984,0,0,1-.947.189C169.548,52.559,168.257,53.782,166.112,53.858Zm9.472-1.137a1.27,1.27,0,0,1-1.137,1.137V53.479a1.472,1.472,0,0,1,.569-0.568A0.963,0.963,0,0,1,175.584,52.721ZM128.41,54.427a1.035,1.035,0,0,0,.758.568,0.757,0.757,0,0,1,.758-0.379l0.189,0.568a1.278,1.278,0,0,1,.189.758,4.778,4.778,0,0,0-.947.758c-1.438.08-2.175,0-2.273-1.326a1.057,1.057,0,0,0,0-.758h0.189v-0.19h1.137Zm36,1.137h-0.948V54.806h0.758V55h0.19v0.569Zm16.861-.379c-0.326.167-.242,0.168-0.569,0h0.569Zm-8.336.947q-0.094.285-.19,0.569h-0.379V56.322h0.19A0.68,0.68,0,0,1,172.932,56.132Zm-27.85.948a1.607,1.607,0,0,1,.379.568H144.7V57.27Zm-1.326.19v0.189h0.189c0.365,0.147-.379.19-0.379,0.19A0.651,0.651,0,0,1,143.756,57.27Zm34.86,0.189-0.38.379C178.745,58.009,178.869,57.722,178.616,57.459Zm-36.565,3.412h-0.379V61.25C142.189,61.11,142.017,61.387,142.051,60.871Zm1.515,6.065v0.19h0.19c0.364,0.147-.379.189-0.379,0.189a0.532,0.532,0,0,0-.19-0.189A0.686,0.686,0,0,1,143.566,66.935Zm0,5.307a0.912,0.912,0,0,0-.568.19A0.918,0.918,0,0,0,143.566,72.242ZM173.5,76.411c1.917,1.629,4.108,1.462,7.768,1.516a2.326,2.326,0,0,0,1.326,1.517v0.19h-0.189c-0.5.282-1.4-.136-2.085,0.379l-0.189.758-1.705.568v0.189h0.19c0.884,0.551,1.562.144,1.7,1.516-1.942.509-8.136,2.2-9.662,0.569,0.934-.526,2.689-1.365,3.221-2.274,0.282-.481-0.069-0.86.379-1.137,1-.621,1.618-0.139,1.895-1.516h-0.19a3,3,0,0,1-2.084.758,0.533,0.533,0,0,0-.189-0.19c-0.071-.67-0.664-2.405-0.379-2.653A0.538,0.538,0,0,1,173.5,76.411Zm-1.894,5.117v0.379c-1.035.661-1.73,1.749-3.221,1.9-0.346-.448-0.808-0.652-1.137-1.137,1.163-.322,2.019.106,2.653-1.137h1.7Zm2.841,0.569-0.947.19v0.758h0.569A2.011,2.011,0,0,0,174.447,82.1Zm-9.093.379v0.758l-1.137-.19V82.476a0.545,0.545,0,0,0,.19-0.189Zm21.787,0.19c0.5,0.532.923,0.142,0.947,0.758a3.547,3.547,0,0,1-1.894.19V83.234A3.413,3.413,0,0,1,187.141,82.666Zm-20.272.19c-0.314.212-.2,0.336-0.378,0h0.378ZM183.162,83.8a4.971,4.971,0,0,0,.948.758v0.19h-0.19a6.568,6.568,0,0,1-.568.569l-4.168.379c-0.74-.181-1.66-0.568-2.463-0.758l-0.189-.379,0.568-.19C178.19,83.69,181.953,83.92,183.162,83.8Zm-18.187,2.653a2.974,2.974,0,0,1,.189.948,3.913,3.913,0,0,1-1.7.758V87.783a3.267,3.267,0,0,0,.758-1.327h0.758Zm-7.389.379c0.92,0.063,1.167.295,2.084,0.379a2,2,0,0,1,.379.948,4.073,4.073,0,0,0-.758.758,0.651,0.651,0,0,1-.379-0.19c-0.778-.295-0.731-0.883-1.326-1.327V86.835Zm17.051,7.2-0.568.19v0.19h0.568V94.037Z"/>
  <text id="Fisher" class="cls-2" x="23.5" y="127.5">Fisher</text>
  <text id="Web_Design" data-name="Web Design" class="cls-3" x="49.5" y="196.5">Web Design</text>
  <text id="_Locke" data-name="&amp; Locke" class="cls-2" x="37.5" y="161.5">&amp; Locke</text>
</svg>
