<svg xmlns="http://www.w3.org/2000/svg" viewBox="0 0 509.85 366.9"><defs><style>.cls-1,.cls-2,.cls-6{fill:#233c67;}.cls-2{font-size:51.44px;}.cls-2,.cls-6{font-family:KingsCaslon-BoldItalic, Kings Caslon;font-weight:700;font-style:italic;}.cls-3{letter-spacing:-0.04em;}.cls-4{letter-spacing:-0.02em;}.cls-5{letter-spacing:-0.01em;}.cls-6{font-size:47.29px;}.cls-7{letter-spacing:-0.1em;}.cls-8{letter-spacing:-0.01em;}</style></defs><g id="Layer_3" data-name="Layer 3"><path class="cls-1" d="M360.9,246.74c.07.16.08.16,0,0a2.6,2.6,0,0,1,.1.25c0,.13.08.26.11.4a3.21,3.21,0,0,1,.11.52c-.05-.33,0,.07,0,.14a7.69,7.69,0,0,1,0,1c0,.06-.08.62,0,.29,0,.16,0,.32-.08.48a15.82,15.82,0,0,1-.56,1.93l-.36,1s-.21.5-.1.24l-.23.51a1.56,1.56,0,0,0,.54,2.06,1.52,1.52,0,0,0,2.05-.54c1.35-3.08,2.6-6.49,1-9.73a1.51,1.51,0,0,0-2.05-.54,1.54,1.54,0,0,0-.54,2.06Z" transform="translate(-48.11 -60.81)"/><path class="cls-1" d="M361.31,256.52a1.5,1.5,0,0,0,0-3,1.5,1.5,0,0,0,0,3Z" transform="translate(-48.11 -60.81)"/><path class="cls-1" d="M359.76,256.28c.56,2.44-.32,4.81-1.35,7a55.49,55.49,0,0,0-3,6.74c-.91,2.9-.65,5.86-.7,8.85a31.07,31.07,0,0,1-1.51,8.43c-.85,2.81-1.85,5.57-2.58,8.42a76.89,76.89,0,0,0-1.64,8.92c-.82,6-1.26,12.06-2.72,17.95-.82,3.26-2.08,6.43-2.17,9.83-.1,3.25.74,6.55-.27,9.72-.58,1.84,2.31,2.63,2.89.79.92-2.86.53-5.78.4-8.72-.14-3.19.7-6,1.56-9,1.7-6,2.25-12.16,3-18.29a91,91,0,0,1,1.5-9c.66-2.89,1.62-5.68,2.51-8.5a40.35,40.35,0,0,0,1.93-8.68c.28-3-.3-6.17.47-9.15,1.42-5.47,5.95-10.06,4.55-16.06-.44-1.88-3.33-1.09-2.89.79Z" transform="translate(-48.11 -60.81)"/><path class="cls-1" d="M379.26,258.18c-5.05,2.37-7.71,7.54-9.67,12.49-2.45,6.19-4.78,12.61-5.36,19.28-.3,3.55-.17,7.12-.54,10.67s-1.47,6.74-2.22,10.11a31.13,31.13,0,0,0-.72,4.61c-.13,1.88.09,3.76.12,5.65.05,3.46-1.32,6.59-1.83,10s.35,7.28-2.7,9.44-7.28,1.4-10.77.73c-1.88-.37-2.69,2.53-.79,2.89,3.38.66,7,1.33,10.36.25a8.93,8.93,0,0,0,6.07-5.75,18.14,18.14,0,0,0,.58-4.58,25.18,25.18,0,0,1,.82-5.31,39,39,0,0,0,1.1-4.9,29.08,29.08,0,0,0,0-5.36,33.6,33.6,0,0,1,1.43-10.14,51.24,51.24,0,0,0,1.72-10.51,78.5,78.5,0,0,1,.8-11.16,67.54,67.54,0,0,1,3-10.25c2.05-5.7,4.16-12.75,10.1-15.54,1.74-.81.22-3.4-1.52-2.59Z" transform="translate(-48.11 -60.81)"/><path class="cls-1" d="M358.55,343l1-.17a1.46,1.46,0,0,0,.9-.69,1.57,1.57,0,0,0,.18-1,1.49,1.49,0,0,0-1.47-1.31,5.39,5.39,0,0,0-3.62,1.79,1.55,1.55,0,0,0-.24,1.82,1.74,1.74,0,0,0,.54.54,1.49,1.49,0,0,0,1.15.15,6.78,6.78,0,0,0,3.44-3,6.85,6.85,0,0,0,.78-4.52,1.49,1.49,0,0,0-.69-.9,1.61,1.61,0,0,0-1-.18,1.49,1.49,0,0,0-1.3,1.48c0,.39.06.78.06,1.18,0,.2,0,.4,0,.6s0,.23,0,.34c0-.46,0-.16,0,0a5.73,5.73,0,0,1-.14.56c-.05.14-.2.33,0,0-.05.08-.08.17-.12.24s-.1.16-.14.23c-.15.23.26-.26,0,0a.86.86,0,0,0-.19.19c.2-.15.24-.18.11-.09l-.14.08,1.82,2.36q-.31.23-.12.12c-.24.09-.31.12-.19.09s0,0-.23,0h.15c-.05-.07-.43,0-.12,0-.23-.11-.3-.13-.2-.08s.05,0-.15-.13l.1.1-.15-.19c.07.14,0,.08-.07-.16s0-.32,0-.2,0,0,0-.2c0,.15,0,.11.07-.13l0,.07c-.08.13-.06.09.09-.11-.18.2.28-.16,0,0,.24-.09.29-.11.14-.06l.24,0c-.17,0-.11,0,.16,0l.05,0c.13.06.15.06.06,0,.2.17.25.2.14.09l.15.19a.83.83,0,0,1-.08-.12c.1.24.12.3.09.19l0-.11c0,.28,0,.35,0,.19v-.07c-.05.28-.05.34,0,.19-.12.24-.13.3-.06.17a1.52,1.52,0,0,0-.53-2.06,1.54,1.54,0,0,0-2.06.54,2.52,2.52,0,0,0,.45,3.09,2.42,2.42,0,0,0,3.32-3.52,2.62,2.62,0,0,0-1.65-.68,2.46,2.46,0,0,0-1.73.64,1.5,1.5,0,0,0-.44,1.06,1.57,1.57,0,0,0,.32.91,1.5,1.5,0,0,0,1.94.38c2-1.23,2.25-3.69,2.07-5.83l-2.95.39c.05.27,0-.28,0-.09s0,.11,0,.17,0,.26,0,.39l0,.44c0,.21,0-.1,0-.14a.78.78,0,0,0,0,.21,5,5,0,0,1-.21.76,1.19,1.19,0,0,0-.08.2c0-.05.14-.3.05-.12a3.55,3.55,0,0,1-.2.39,3.79,3.79,0,0,1-.2.34l-.1.14c-.13.2,0,0,.05-.05-.18.19-.34.39-.53.58l-.33.28c.05,0,.27-.19.1-.08l-.18.13-.34.2c-.11.06-.55.25-.11.07l1.46,2.5a4.17,4.17,0,0,1,.47-.47c.22-.2-.27.18,0,0a2.82,2.82,0,0,1,.29-.18l.25-.12c-.21.08-.24.1-.09,0l.18-.06.28-.08.19,0h-.11l-.4-2.94-1,.17A1.5,1.5,0,0,0,356.7,342a1.56,1.56,0,0,0,1.85,1Z" transform="translate(-48.11 -60.81)"/><path class="cls-1" d="M335.8,174.6a76.3,76.3,0,0,0,9.2,3.06c2.94.78,5.93,1.26,8.91,1.85,2.44.48,5.2,1.16,6.79,3.25s1.57,5.07,1.52,7.62a84.09,84.09,0,0,0,.29,9.39c.31,3.38.62,6.74.61,10.14a188.81,188.81,0,0,1-1.72,20.69l-2.62,23.26c-.22,1.92,2.78,1.9,3,0l2.46-21.78c.81-7.2,1.81-14.42,1.88-21.68,0-3.56-.29-7.09-.61-10.63a93.79,93.79,0,0,1-.28-9.78c0-2.75-.12-5.68-1.54-8.12a10.67,10.67,0,0,0-6.24-4.57c-3.19-1-6.61-1.31-9.87-2.08a78.35,78.35,0,0,1-11-3.51c-1.79-.72-2.57,2.18-.8,2.89Z" transform="translate(-48.11 -60.81)"/><path class="cls-1" d="M411.63,161.51l2.5,10.38a23.22,23.22,0,0,1,.92,5,12.56,12.56,0,0,1-1,4.71c-1.18,3.12-2.3,6.21-3.22,9.42s-1.76,6.48-2.79,9.67a51.81,51.81,0,0,1-8.83,16.42,177.54,177.54,0,0,1-12.35,13.38c-4.58,4.7-10.45,9.83-11.73,16.58-.36,1.89,2.53,2.7,2.89.8,1.15-6.1,6.54-10.71,10.68-15a183.63,183.63,0,0,0,12.63-13.68,54.87,54.87,0,0,0,9.17-16.45c2.18-6.33,3.5-12.92,6-19.16a20.47,20.47,0,0,0,1.55-5.4,16.4,16.4,0,0,0-.54-5.26c-.93-4.08-1.95-8.14-2.93-12.2-.45-1.88-3.35-1.08-2.9.8Z" transform="translate(-48.11 -60.81)"/><path class="cls-1" d="M368.42,157.69c2.67,4.93,2.65,10.65,2.76,16.11a68.94,68.94,0,0,0,.56,8.37,90.16,90.16,0,0,0,2.08,8.85c1.47,5.92.82,11.66-.38,17.56s-2.68,11.89-2.38,18c.35,7,2.58,13.74,4.81,20.34.62,1.82,3.52,1,2.9-.79-2-5.9-4.07-11.91-4.62-18.15s.89-12.28,2.14-18.36c1.21-5.9,2-11.85.79-17.81-.64-3-1.65-5.94-2.21-9a53.91,53.91,0,0,1-.68-8.6c-.13-6.17-.17-12.5-3.18-18.06-.92-1.7-3.51-.18-2.59,1.52Z" transform="translate(-48.11 -60.81)"/><path class="cls-1" d="M419.16,221.37c-7.31-1.35-14.41,1.56-20,6.17a53.28,53.28,0,0,0-7.58,8c-2.28,2.86-4.77,5.79-6.38,9.1-1.75,3.58-2.31,7.9-.1,11.42,1,1.64,3.62.13,2.59-1.51-2.32-3.7-.42-8,1.78-11.25a80.72,80.72,0,0,1,7.6-9.58c5.38-5.81,13-10.94,21.28-9.41,1.89.35,2.69-2.54.8-2.89Z" transform="translate(-48.11 -60.81)"/><path class="cls-1" d="M382.7,257.16a20.39,20.39,0,0,0-4.52,3.66,1.5,1.5,0,0,0,2.12,2.12,19,19,0,0,1,2.34-2.14l-.31.23a20.21,20.21,0,0,1,1.89-1.28,1.5,1.5,0,1,0-1.52-2.59Z" transform="translate(-48.11 -60.81)"/><path class="cls-1" d="M427.37,248c-3.51,1.45-7.23,1.74-11,1.94a81.5,81.5,0,0,0-11.56,1.32c-7.88,1.58-15.41,4.45-22.89,7.31-1.79.68-1,3.59.8,2.9,7.48-2.86,15-5.74,22.88-7.31a79.76,79.76,0,0,1,11.43-1.25c3.78-.22,7.59-.56,11.12-2,1.76-.72,1-3.63-.8-2.89Z" transform="translate(-48.11 -60.81)"/><path class="cls-1" d="M408.52,220.37c.84-4.28,3.26-7.89,5.81-11.34a95.78,95.78,0,0,0,7.54-11.27c2.26-4.16,4.22-8.47,6.51-12.61a58,58,0,0,1,3.82-6.08c.6-.82,1.2-1.67,2.27-1.8a16.61,16.61,0,0,1,3.57.34A24.64,24.64,0,0,0,453,174.27a1.5,1.5,0,0,0-1.51-2.59,21.84,21.84,0,0,1-13.84,2.88c-2.31-.29-4.49-.64-6.38,1a25,25,0,0,0-4.14,5.78c-2.52,4.18-4.55,8.63-6.8,12.95a86.62,86.62,0,0,1-7.71,12.07c-3,4-6,8.18-7,13.18-.37,1.89,2.52,2.69,2.9.8Z" transform="translate(-48.11 -60.81)"/><path class="cls-1" d="M498.05,146.18l8.45-1.77a1.51,1.51,0,0,0,1.05-1.84,1.53,1.53,0,0,0-1.84-1l-8.46,1.77a1.51,1.51,0,0,0-1.05,1.84,1.54,1.54,0,0,0,1.85,1.05Z" transform="translate(-48.11 -60.81)"/><path class="cls-1" d="M506,154.67q5.37-1.8,10.56-4a1.51,1.51,0,0,0,0-2.6l-9.8-4.26a1.55,1.55,0,0,0-2.05.54,1.51,1.51,0,0,0,.54,2.05l9.8,4.27V148c-3.23,1.39-6.51,2.63-9.84,3.75a1.53,1.53,0,0,0-1.05,1.85,1.5,1.5,0,0,0,1.84,1Z" transform="translate(-48.11 -60.81)"/><path class="cls-1" d="M500.07,153.66l-9,3.67c-2.78,1.13-5.67,2.67-8.65,3.2s-5.95-.93-8.69-1.83l-9.36-3.09c-1.84-.61-2.63,2.29-.8,2.89l9.6,3.17c3,1,6,2.28,9.21,1.88s6-1.89,8.8-3.05l9.71-3.95c1.77-.72,1-3.62-.8-2.89Z" transform="translate(-48.11 -60.81)"/><path class="cls-1" d="M463.44,164c1.22.92,2.91,2.38,1.39,3.83a6.29,6.29,0,0,1-2.48,1.23c-1.05.33-2.1.63-3.16.93-4.16,1.18-8.39,2.36-12.08,4.7-1.63,1-.12,3.63,1.51,2.59,4.42-2.81,9.6-3.76,14.52-5.33,2.3-.73,4.8-2,5.26-4.63s-1.55-4.48-3.45-5.91a1.51,1.51,0,0,0-2.05.54,1.53,1.53,0,0,0,.54,2.05Z" transform="translate(-48.11 -60.81)"/><path class="cls-1" d="M378.07,155.78c7.46-7.35,18.07-9.78,27.95-12,1.88-.43,1.08-3.32-.8-2.9-10.42,2.36-21.42,5-29.27,12.79-1.38,1.36.74,3.48,2.12,2.12Z" transform="translate(-48.11 -60.81)"/><path class="cls-1" d="M403.23,131.54c8,.48,15.66,3.72,23.74,3.34,6.35-.29,13.09-3.16,15.79-9.29.77-1.75-1.81-3.28-2.59-1.51-2.59,5.87-9.12,8-15.11,7.82-7.4-.16-14.45-2.92-21.83-3.36-1.93-.11-1.92,2.89,0,3Z" transform="translate(-48.11 -60.81)"/><path class="cls-1" d="M399.17,132.78c-.64,3,1.21,5.48,3.38,7.32.52.43,1.05.86,1.56,1.31.23.21.48.42.69.65,0,0,.21.21.18.25s-.05-.23-.1-.2-.26.37-.38.5a6,6,0,0,1-.72.71,6.39,6.39,0,0,1-1.56,1,1.51,1.51,0,0,0-.54,2,1.53,1.53,0,0,0,2.05.54,8.91,8.91,0,0,0,3.51-2.9,3.1,3.1,0,0,0,.61-2.44,4.11,4.11,0,0,0-1.39-2c-1.58-1.47-4.93-3.42-4.4-5.92a1.54,1.54,0,0,0-1.05-1.85,1.52,1.52,0,0,0-1.84,1.05Z" transform="translate(-48.11 -60.81)"/><path class="cls-1" d="M427.38,137.25c-1.83,5.4-7.56,8.05-12.33,10.31a1.5,1.5,0,0,0-.54,2.05,1.53,1.53,0,0,0,2.05.54c5.61-2.65,11.59-5.84,13.71-12.11a1.5,1.5,0,1,0-2.89-.79Z" transform="translate(-48.11 -60.81)"/><path class="cls-1" d="M436.2,161.27c6-.49,12.46-1.11,17.39-4.91a1.57,1.57,0,0,0,.54-2.06,1.51,1.51,0,0,0-2.06-.53c-4.53,3.49-10.36,4-15.87,4.5a1.54,1.54,0,0,0-1.5,1.5,1.51,1.51,0,0,0,1.5,1.5Z" transform="translate(-48.11 -60.81)"/><path class="cls-1" d="M442.51,152.45a24.12,24.12,0,0,0-12.84-2.89c-2.29.14-4.55.92-6.84.87a20.61,20.61,0,0,1-7-1.91c-1.8-.71-2.58,2.19-.8,2.89a26.44,26.44,0,0,0,6.45,1.91c2.39.3,4.56-.34,6.9-.64A21.1,21.1,0,0,1,441,155c1.7.91,3.22-1.68,1.51-2.59Z" transform="translate(-48.11 -60.81)"/><path class="cls-1" d="M443.72,156.51l1.85.27a1.11,1.11,0,0,0,.6,0,1.09,1.09,0,0,0,.55-.18,1,1,0,0,0,.42-.38,1.06,1.06,0,0,0,.27-.51,1.51,1.51,0,0,0-.15-1.16l-.23-.3a1.49,1.49,0,0,0-.66-.39l-1.85-.26a1.22,1.22,0,0,0-.6,0,1.16,1.16,0,0,0-.56.18,1.12,1.12,0,0,0-.42.39,1.14,1.14,0,0,0-.27.51,1.54,1.54,0,0,0,.16,1.15l.23.31a1.57,1.57,0,0,0,.66.38Z" transform="translate(-48.11 -60.81)"/><path class="cls-1" d="M430.4,159a14.93,14.93,0,0,0-12.52,6.21,1.5,1.5,0,0,0,.53,2.05,1.54,1.54,0,0,0,2.06-.54A11.89,11.89,0,0,1,430.4,162a1.5,1.5,0,0,0,0-3Z" transform="translate(-48.11 -60.81)"/><path class="cls-1" d="M407.61,164a103.87,103.87,0,0,1-11.11,1.73c-3.38.33-7.3,1-10.58-.16-1.82-.65-2.61,2.25-.8,2.9,3.56,1.26,7.72.62,11.38.26a108.74,108.74,0,0,0,11.91-1.84c1.89-.39,1.09-3.28-.8-2.89Z" transform="translate(-48.11 -60.81)"/><path class="cls-1" d="M374.84,163.5c.15,2.11-.42,4.17,1.09,5.94,1.38,1.61,3.74,2.23,5.78,2.35a20,20,0,0,0,6.29-.88,48.67,48.67,0,0,0,6.78-2.39,1.51,1.51,0,0,0,.54-2.05,1.55,1.55,0,0,0-2.06-.54,30.19,30.19,0,0,1-10.39,2.86,6.73,6.73,0,0,1-4.38-1c-1.21-.95-.56-2.92-.65-4.25-.14-1.91-3.14-1.93-3,0Z" transform="translate(-48.11 -60.81)"/><path class="cls-1" d="M408.64,182.87c-3.41.59-6.84-.61-10.27-.25s-5.8,2.45-8.62,4.25c-1.4.9-3.1,1.76-4.81,1.39-1.5-.34-2.74-1.5-3.93-2.39a32.78,32.78,0,0,0-9.36-4.79c-1.84-.61-2.63,2.29-.8,2.89a32.4,32.4,0,0,1,9.45,5.1,9.93,9.93,0,0,0,4.47,2.19,8.47,8.47,0,0,0,4.94-.92c3.05-1.46,5.37-4.36,8.88-4.74s7.19.8,10.85.16c1.89-.33,1.09-3.22-.8-2.89Z" transform="translate(-48.11 -60.81)"/><path class="cls-1" d="M381.74,200.3c3-1.07,6.13-.3,9.18.09a17.26,17.26,0,0,0,8.86-1c6-2.41,10.09-7.48,14.84-11.59,1.47-1.27-.66-3.38-2.12-2.12-4.5,3.9-8.5,9-14.28,11.11a17,17,0,0,1-8.43.41c-3-.43-6-.85-8.85.17-1.81.65-1,3.55.8,2.9Z" transform="translate(-48.11 -60.81)"/><path class="cls-1" d="M431.24,248.51l12.59-9c1.94-1.39,3.95-3.23,6.19-4.11s4.51.2,6.71.7c4.8,1.08,9.77-.19,14.47-1.25s9.59-2.38,14.31-3.87c1.83-.58,1.05-3.48-.8-2.9q-7.31,2.32-14.78,4a64.12,64.12,0,0,1-7.14,1.34,20.29,20.29,0,0,1-7.51-.79,9.73,9.73,0,0,0-6.81.21,35.82,35.82,0,0,0-5.75,3.81l-13,9.26c-1.56,1.11-.06,3.71,1.52,2.59Z" transform="translate(-48.11 -60.81)"/><path class="cls-1" d="M489.88,214.85l-6.81.94c-1.76.24-3.58.75-3.64,2.89a10.81,10.81,0,0,0,.49,2.57,14.51,14.51,0,0,1,.31,3,14.87,14.87,0,0,1-1.22,5.92,1.52,1.52,0,0,0,1.69,2.2c18.58-4.51,38.17.38,56.6-5.25a42.46,42.46,0,0,0,13-6.41c1.53-1.14,0-3.75-1.51-2.59-15,11.17-34.8,8.57-52.32,9.26a84.07,84.07,0,0,0-16.58,2.1l1.7,2.21a18.2,18.2,0,0,0,1.33-10.62,13.48,13.48,0,0,1-.5-2.4l-.19.27a3.56,3.56,0,0,1,.65-.13c.49-.08,1-.14,1.46-.2l6.33-.87a1.53,1.53,0,0,0,1.05-1.85,1.54,1.54,0,0,0-1.85-1.05Z" transform="translate(-48.11 -60.81)"/><path class="cls-1" d="M548.76,221.21l8.79-10.46L555,209.29c-.22,1-1.42,1-2.27,1a24.48,24.48,0,0,1-4.15-.7c-2.26-.54-4.45-1.56-5.44-3.79a1.5,1.5,0,0,0-2-.54,1.55,1.55,0,0,0-.54,2.05c1.4,3.17,4.82,4.7,8,5.35a17.24,17.24,0,0,0,5.66.56,4.25,4.25,0,0,0,3.66-3.1c.3-1.34-1.47-2.69-2.5-1.46l-8.79,10.46a1.54,1.54,0,0,0,0,2.12,1.52,1.52,0,0,0,2.12,0Z" transform="translate(-48.11 -60.81)"/><path class="cls-1" d="M543,206.45a26.39,26.39,0,0,1,2.64-3.6,1.52,1.52,0,0,0-.66-2.51,32.14,32.14,0,0,0-10.85-.27c-1.67.24-3.28.7-4.93,1a6.08,6.08,0,0,1-4.44-.33,1.5,1.5,0,0,0-1.51,2.59c3.1,1.84,6.56.62,9.8-.07a28,28,0,0,1,11.13-.07l-.66-2.5a30.5,30.5,0,0,0-3.11,4.21c-1,1.65,1.57,3.16,2.59,1.51Z" transform="translate(-48.11 -60.81)"/><path class="cls-1" d="M514.68,206.89a20.28,20.28,0,0,1-2.67-.74l-.3-.11c-.24-.09,0-.07,0,0a2,2,0,0,0-.25-.13l.16.12h0a1.07,1.07,0,0,1,.19.44c0,.21,0,.25,0,.14s0-.11,0-.16-.14.31,0,0a2.59,2.59,0,0,1,.14-.29,9.66,9.66,0,0,1,.56-1c.1-.16.21-.33.33-.49a1.66,1.66,0,0,1,.16-.21c-.26.27,0,0,0,0a11.06,11.06,0,0,1,1.7-1.65,1.5,1.5,0,0,0,0-2.12,1.52,1.52,0,0,0-1.06-.44,1.74,1.74,0,0,0-1.06.44,11.92,11.92,0,0,0-3.58,4.7,2.56,2.56,0,0,0,0,2.26,3,3,0,0,0,1.63,1.22,18.47,18.47,0,0,0,3.11.9,1.5,1.5,0,0,0,.8-2.89Z" transform="translate(-48.11 -60.81)"/><path class="cls-1" d="M497.1,212c1.61-2.16,2.42-4.92,4.28-6.89,2.05-2.18,5.26-2.16,7.95-3A18.8,18.8,0,0,0,520.84,191c.7-1.79-2.2-2.57-2.9-.79-2,5.21-6.61,8.41-11.93,9.61-2.82.63-5.43,1.47-7.31,3.8-1.69,2.11-2.58,4.7-4.19,6.86-1.15,1.55,1.45,3.05,2.59,1.51Z" transform="translate(-48.11 -60.81)"/><path class="cls-1" d="M510.89,193.06c-3.47.39-6.55,1.91-9.89,2.81-2.47.66-5.6.9-7.68-.89-1.45-1.25-3.58.86-2.12,2.12,2.59,2.23,6,2.55,9.22,2,3.58-.64,6.83-2.6,10.47-3a1.56,1.56,0,0,0,1.5-1.5,1.5,1.5,0,0,0-1.5-1.5Z" transform="translate(-48.11 -60.81)"/><path class="cls-1" d="M485.68,195.93A70.52,70.52,0,0,1,471,198.17c-3.56.16-8.28.57-10.8-2.5-1.23-1.49-3.34.64-2.12,2.12,2.86,3.49,7.84,3.55,12,3.42a74.06,74.06,0,0,0,16.42-2.39,1.5,1.5,0,0,0-.8-2.89Z" transform="translate(-48.11 -60.81)"/><path class="cls-1" d="M451.83,201A46.76,46.76,0,0,1,427,209.45c-1.93.08-1.94,3.08,0,3a49.75,49.75,0,0,0,26.36-8.84c1.57-1.1.07-3.7-1.52-2.59Z" transform="translate(-48.11 -60.81)"/><path class="cls-1" d="M427.26,213.65a22.83,22.83,0,0,1-13.6,9.1c-1.88.43-1.08,3.32.8,2.89a26,26,0,0,0,15.39-10.48,1.51,1.51,0,0,0-.54-2,1.53,1.53,0,0,0-2.05.54Z" transform="translate(-48.11 -60.81)"/><path class="cls-1" d="M431.58,243a29.12,29.12,0,0,0,.61-5.1,1.53,1.53,0,0,0-2.26-1.3c-3.23,1.41-7,3.12-10.64,2.82-1.11-.09-3.16-.52-3.18-2s1.32-2.58,2.24-3.35c2.21-1.86,5.1-2.8,7.67-4a16.28,16.28,0,0,0,3.74-2.24c1.37-1.23,1.18-3.41-.76-3.9a11.51,11.51,0,0,0-3,0,16.84,16.84,0,0,1-3.33-.1,4.84,4.84,0,0,1-3.78-2.51c-.84-1.74-3.42-.22-2.59,1.51a7.35,7.35,0,0,0,4.7,3.69,12.73,12.73,0,0,0,3.42.43c.66,0,1.32,0,2,0l1,0,.39,0c.56.1.56-.07,0-.49v-.8c-.09.39-1.35.92-1.68,1.1-.69.39-1.41.74-2.12,1.07-1.44.67-2.9,1.28-4.31,2-2.66,1.37-5.76,3.57-6.43,6.69-.86,4,3.25,6,6.61,6,4,.08,8-1.7,11.6-3.26l-2.25-1.29a26,26,0,0,1-.5,4.31c-.4,1.88,2.5,2.68,2.89.79Z" transform="translate(-48.11 -60.81)"/><path class="cls-1" d="M474.57,226.67c-7,1.5-17.57,3.24-21.25-5L452,224c3.72.39,8-.14,10.7-3.05,2.23-2.45,3-6.32,1.11-9.17l-1.69,2.2a55.26,55.26,0,0,0,40.91-9.64c1.55-1.12.05-3.72-1.52-2.59a52.31,52.31,0,0,1-38.6,9.34c-1.16-.19-2.5,1-1.69,2.2,1.32,1.94.57,4.51-1.11,6-2.17,1.92-5.39,2-8.11,1.71-1.26-.14-1.71,1.34-1.3,2.25,1.71,3.82,5.49,6.29,9.46,7.26,5,1.23,10.23.14,15.18-.91,1.89-.41,1.09-3.3-.8-2.9Z" transform="translate(-48.11 -60.81)"/><path class="cls-1" d="M337.84,173c-.77-.64-1.52-1.3-2.24-2-.06-.06-.43-.49-.5-.48l-.17.4c-.26.35-.29.48-.09.36a11.08,11.08,0,0,0,1.14-.16,35.34,35.34,0,0,0,5-.67,35.81,35.81,0,0,0,18.05-9.81c2.23-2.26,5.55-5.72,2.15-8.49a19.73,19.73,0,0,1-6.72-9.93,1.5,1.5,0,0,0-2.9.79,22.29,22.29,0,0,0,5.43,9.41,24.44,24.44,0,0,0,1.93,1.74c.19.15.7.44.78.68.14.45-.47,1.06-.71,1.36a29.62,29.62,0,0,1-3.64,3.79,32.55,32.55,0,0,1-19.2,8.12c-1.51.1-3.63.26-4.06,2.08-.49,2.07,2.26,3.81,3.59,4.92,1.48,1.22,3.61-.89,2.13-2.12Z" transform="translate(-48.11 -60.81)"/><path class="cls-1" d="M372.45,157.11a33.52,33.52,0,0,1-3.22-3.9c-.83-1.21-1.91-2.6-1.54-4.15s1.38-2.75,2-4.09a23.28,23.28,0,0,0,1.67-4.44,15.25,15.25,0,0,0-.27-8.9,12.17,12.17,0,0,0-2-3.58c-.57-.69-2.6-2.1-2-3.13,1-1.65-1.59-3.16-2.6-1.51-2,3.22,1.7,5.33,3.09,7.76,1.71,3,1.54,6.62.5,9.82a28.13,28.13,0,0,1-2.2,4.72,8,8,0,0,0-1.3,4.53,9.67,9.67,0,0,0,2,4.48,38.1,38.1,0,0,0,3.69,4.52c1.34,1.39,3.46-.73,2.12-2.13Z" transform="translate(-48.11 -60.81)"/><path class="cls-1" d="M322.81,125.29a45.94,45.94,0,0,1,9.74,1.65,23.94,23.94,0,0,1,8.32,5.13,50.19,50.19,0,0,1,6.94,6.73c2.15,2.74,3.42,6,5,9.11.87,1.72,3.46.2,2.59-1.52-1.64-3.27-3-6.64-5.3-9.54a54.69,54.69,0,0,0-7.74-7.47,26.25,26.25,0,0,0-8.78-5.27,48.85,48.85,0,0,0-10.74-1.82c-1.93-.18-1.91,2.82,0,3Z" transform="translate(-48.11 -60.81)"/><path class="cls-1" d="M329.26,123.6c7.24,1.83,15,3.73,20.88,8.64,3.23,2.71,5.77,6.2,8.42,9.45l8.65,10.61c1.23,1.5,3.34-.64,2.13-2.12l-9-11c-2.72-3.34-5.34-6.88-8.74-9.58-6.22-4.93-14-7-21.58-8.9-1.87-.47-2.67,2.42-.79,2.89Z" transform="translate(-48.11 -60.81)"/><path class="cls-1" d="M369.46,123.65a30.1,30.1,0,0,1,3.76-5.94,1.5,1.5,0,0,0-2.12-2.12c-1.84,1.51-4.94-.88-6-2.31a9.84,9.84,0,0,1-1.46-7.88,1.51,1.51,0,0,0-2.51-1.46A86.66,86.66,0,0,1,348,114.49c-3.59,2.33-10,6.88-13.85,2.66-1.31-1.42-3.42.7-2.12,2.12,4.53,4.94,11.35,1.64,16-1.23a90.12,90.12,0,0,0,15.26-12l-2.51-1.46c-.78,4-.16,8.27,2.69,11.34,2.43,2.62,6.76,4.27,9.81,1.77l-2.12-2.12a33.4,33.4,0,0,0-4.23,6.54c-.84,1.73,1.75,3.26,2.59,1.52Z" transform="translate(-48.11 -60.81)"/><path class="cls-1" d="M333.88,118.77c-3.32.22-7.68.6-10-2.38-2.12-2.74.41-6.31.86-9.21.62-4-1.94-6.37-4.22-9.22a68.23,68.23,0,0,1-6.67-10.14c-.92-1.7-3.51-.19-2.59,1.51a71.69,71.69,0,0,0,7,10.57c1.17,1.48,3,3,3.5,4.93s-.41,3.59-.94,5.2c-1.1,3.38-1.12,6.87,1.8,9.34,3.17,2.69,7.3,2.66,11.24,2.4,1.91-.13,1.93-3.13,0-3Z" transform="translate(-48.11 -60.81)"/><path class="cls-1" d="M326.4,107.27c3.8-1.56,7.91-3.21,10.63-6.44,2.44-2.9,3.76-7.07,2.23-10.71a15.4,15.4,0,0,0-1.56-2.58c-.45-.7-1-1.51-.26-2.19a5.22,5.22,0,0,1,2.2-.94c1.23-.34,2.47-.62,3.72-.86,4.31-.82,9.58-.23,13.16-3.21a6,6,0,0,0,2.28-5.63,4.91,4.91,0,0,0-3.66-4c-1.88-.41-2.69,2.49-.8,2.89a2.19,2.19,0,0,1,1.38,3c-.66,1.6-2.41,2.42-4,2.81a61.44,61.44,0,0,1-6.38.81,48.41,48.41,0,0,0-6.51,1.31,7.28,7.28,0,0,0-3.93,2.17,4.14,4.14,0,0,0-.19,4.71c.82,1.53,2,2.68,2.18,4.5a8,8,0,0,1-1.17,4.61c-2.13,3.63-6.42,5.35-10.13,6.86-1.76.73-1,3.63.8,2.9Z" transform="translate(-48.11 -60.81)"/><path class="cls-1" d="M327.81,118c-4.51-.29-8.05-2.66-10.86-6.07-2.34-2.84-4.51-6.06-8.09-7.41-4.24-1.59-8.38.58-12.18,2.33a19.93,19.93,0,0,1-14.17,1c-5.35-1.48-10.07-4.56-14.69-7.54-1.63-1-3.13,1.55-1.51,2.59,8.09,5.22,17.62,10.92,27.64,8.15a46.18,46.18,0,0,0,6.5-2.71c1.94-.87,4.13-1.73,6.29-1.35,3.79.66,6.05,4.58,8.32,7.28A17.87,17.87,0,0,0,327.81,121c1.93.13,1.92-2.88,0-3Z" transform="translate(-48.11 -60.81)"/><path class="cls-1" d="M327.56,125.65a22.72,22.72,0,0,0-6.45,1c-1.75.57-3.93,1.31-5,2.94s-.73,3.18-.27,4.78c.3,1.05,1.26,3.09-.29,3.55s-3.43-.48-4.81-1c-2.16-.82-4.28-1.72-6.4-2.62a99.18,99.18,0,0,0-12.72-4.75c-9-2.42-18.39-1.16-27.38-3.26a19.5,19.5,0,0,1-9.34-4.6,9.54,9.54,0,0,1-2.67-4.34c-.51-2.06.85-2.6,2.63-2.49,2.29.15,4.56.77,6.86,1a50.22,50.22,0,0,0,7.46.19,52.72,52.72,0,0,0,15-2.93c1.81-.64,1-3.54-.8-2.89a50,50,0,0,1-14.22,2.82,51.5,51.5,0,0,1-7.24-.17c-2.21-.21-4.37-.75-6.58-1a6.06,6.06,0,0,0-4.95,1.26c-1.55,1.51-1.53,3.83-.82,5.75a15.12,15.12,0,0,0,7.43,7.92c8.26,4.32,18,3.31,27,4.33a55.48,55.48,0,0,1,14.29,3.85c4.47,1.78,8.82,4,13.4,5.44,1.81.59,4.05.9,5.77-.14s2.12-3.25,1.68-5.17c-.21-.9-.6-1.76-.73-2.67-.15-1.07.32-1.58,1.24-2.06a18.16,18.16,0,0,1,7.84-1.81c1.92,0,1.93-3,0-3Z" transform="translate(-48.11 -60.81)"/><path class="cls-1" d="M319.81,119.29a9.78,9.78,0,0,0-8.89-2.24c-3.14.77-5.8,2.76-9.08,3.07a14.8,14.8,0,0,1-14-7,1.5,1.5,0,0,0-2.59,1.52,17.83,17.83,0,0,0,14.2,8.54,18.23,18.23,0,0,0,8.67-1.82c3.22-1.43,6.6-2.55,9.58.08,1.44,1.28,3.57-.84,2.12-2.12Z" transform="translate(-48.11 -60.81)"/><path class="cls-1" d="M352.3,72.16c-5.22,3-9.82-3.13-12.33-6.83a1.52,1.52,0,0,0-2.59,0c-2.14,2.82-6.29,3-9.53,3-4.63,0-9.29-.41-13.9-.88-4.77-.49-9.53-1.18-14.25-2.06-4-.75-8.52-1.44-11.74-4.2-1.46-1.26-3.59.86-2.12,2.12a21.19,21.19,0,0,0,9.55,4.27c4,.88,8.08,1.54,12.14,2.09s8.14,1,12.23,1.28a67.23,67.23,0,0,0,11.17.26c3.55-.34,6.83-1.45,9-4.38h-2.59c1.91,2.82,3.94,5.78,6.95,7.54a9.46,9.46,0,0,0,9.49.37,1.5,1.5,0,0,0-1.52-2.59Z" transform="translate(-48.11 -60.81)"/><path class="cls-1" d="M282.47,68.07a37.46,37.46,0,0,1-6,7.48,1.52,1.52,0,0,0,0,2.13,64.9,64.9,0,0,0,12.37,8.74V83.83a39,39,0,0,1-22.73,7.29l.75,2.8s.18.38.17.55c0,.33-.44.67-.68.83a5.72,5.72,0,0,1-3.12.5c-2.48,0-5,0-7.44,0H244.66a4.18,4.18,0,0,0-2.8.59c-1.55,1.27-.79,3.4-.23,5a10.85,10.85,0,0,0,2.78,4.59c3.4,3,8.09,1.52,12,.74l16.33-3.2c1.89-.38,1.09-3.27-.8-2.9l-14.88,2.93a57.54,57.54,0,0,1-6.75,1.22c-2.08.15-3.8-.4-4.91-2.23a11.75,11.75,0,0,1-1.09-2.46c-.13-.39-.21-.82-.37-1.2-.07-.18,0-.73-.22-.24s.29.19.65.19c2.56,0,5.13,0,7.69,0h7.69c2.22,0,4.73.31,6.88-.36,1.95-.62,3.72-2.47,3.36-4.65a3.3,3.3,0,0,0-4.65-2.46c-1.43.6-.62,2.79.76,2.79a41.7,41.7,0,0,0,24.24-7.7,1.52,1.52,0,0,0,0-2.59,61.74,61.74,0,0,1-11.76-8.28v2.13a40.54,40.54,0,0,0,6.44-8.1,1.5,1.5,0,0,0-2.59-1.51Z" transform="translate(-48.11 -60.81)"/><path class="cls-1" d="M499.92,139.61a11.2,11.2,0,0,1-2.61-1.25l-.52-.36c-.42-.32-.4-.64-.54.12s-.15.37.24.36a6.72,6.72,0,0,0,1-.31,45.8,45.8,0,0,0,6-1.5c3.39-1.4,5.51-4.43,6.86-7.72s2.72-7.89-1.24-9.81a14.16,14.16,0,0,0-5.35-1,43.66,43.66,0,0,0-6.57.11c-8.79.74-17.27,3.51-26.06,4.13-2.8.2-8.67.72-9-3.33-.11-1.28,1.49-2.61,1.4-.67a6.09,6.09,0,0,1-2.05,3.7c-2.68,2.63-6.71,3.54-10.34,3.64-5.14.15-10.23-.71-15.35.15-1.9.32-1.09,3.21.8,2.89,5.17-.87,10.41.26,15.6-.08a18.75,18.75,0,0,0,10.54-3.71c2.47-2,5.35-6.33,3-9.4a3.5,3.5,0,0,0-5.18-.2,5,5,0,0,0-1.25,4.85c1.06,4.43,5.88,5.37,9.79,5.27a89.11,89.11,0,0,0,14.72-2,107.2,107.2,0,0,1,15-2.32,33.26,33.26,0,0,1,7.33.23,4,4,0,0,1,2.27.91c.79.85.28,2.27,0,3.24a16.28,16.28,0,0,1-3,6.15c-1.72,2-3.91,2.66-6.42,3.15-1.78.35-5.78.71-5.61,3.31.16,2.37,3.81,3.78,5.69,4.42s2.62-2.28.8-2.9Z" transform="translate(-48.11 -60.81)"/><path class="cls-1" d="M432,175.42a10.1,10.1,0,0,1-1.68,0,9.7,9.7,0,0,1-1.63-.41l-.44-.16c.22.09-.21-.1-.22-.11a6.79,6.79,0,0,1-.75-.41q-.37-.23-.72-.48c.17.13-.19-.17-.18-.16l-.35-.32a7,7,0,0,1-.59-.63l-.15-.18c.06.08.05.08,0,0l-.22-.32c-.18-.26-.34-.53-.49-.8l-.21-.42c-.13-.26,0,.07-.09-.22a9.55,9.55,0,0,1-.48-1.66s-.07-.48,0-.22c0-.16,0-.31-.05-.47,0-.31,0-.63,0-.94a1.51,1.51,0,0,0-1.5-1.5,1.54,1.54,0,0,0-1.5,1.5A10.6,10.6,0,0,0,432,178.42a1.5,1.5,0,0,0,0-3Z" transform="translate(-48.11 -60.81)"/><path class="cls-1" d="M415.66,176.73l-5.27,7.38a1.5,1.5,0,0,0,.53,2,1.55,1.55,0,0,0,2.06-.53l5.27-7.39a1.5,1.5,0,0,0-.54-2.05,1.53,1.53,0,0,0-2,.54Z" transform="translate(-48.11 -60.81)"/><path class="cls-1" d="M457.85,197a19.6,19.6,0,0,0-6.75,5.92,1.5,1.5,0,0,0,.54,2.05,1.54,1.54,0,0,0,2.05-.54A4,4,0,0,1,454,204c-.11.12-.14.18,0,0a1.56,1.56,0,0,0,.16-.2c.22-.26.45-.52.68-.77a18.76,18.76,0,0,1,1.43-1.39l.35-.29.2-.16c.16-.13.12-.08,0,0,.28-.19.55-.41.83-.6a18.16,18.16,0,0,1,1.76-1,1.51,1.51,0,0,0,.53-2.05,1.53,1.53,0,0,0-2-.54Z" transform="translate(-48.11 -60.81)"/></g><g id="Layer_5" data-name="Layer 5"><text class="cls-2" transform="translate(2.88 223.12) scale(1.27 1)"><tspan class="cls-3">F</tspan><tspan x="28.09" y="0">i</tspan><tspan class="cls-4" x="43.57" y="0">sc</tspan><tspan x="80.45" y="0">he</tspan><tspan class="cls-3" x="129.21" y="0">r</tspan><tspan x="0" y="61.73" xml:space="preserve">   &amp; Lo</tspan><tspan class="cls-4" x="136" y="61.73">c</tspan><tspan class="cls-5" x="155.96" y="61.73">k</tspan><tspan x="181.26" y="61.73">e</tspan></text><text class="cls-6" transform="matrix(1.09, 0, 0, 1, 143.79, 353.24)"><tspan class="cls-7">W</tspan><tspan class="cls-8" x="40.57" y="0">e</tspan><tspan x="59.48" y="0">b Design</tspan></text></g></svg>